<svg width="48" height="48" viewBox="0 0 48 48" fill="none" xmlns="http://www.w3.org/2000/svg">
<mask id="path-1-inside-1" fill="white">
<path d="M48 24.7742V4.64516H37.1613V0H10.8387V4.64516H0V24.7742H4.64516V36.4971C3.31338 36.843 2.32258 38.0447 2.32258 39.4839C2.32258 41.1918 3.71144 42.5806 5.41935 42.5806C6.85773 42.5806 8.06023 41.5906 8.40612 40.258H15.4839V41.5906L17.3853 42.2238L16.4887 44.016L19.4679 46.9952L21.2593 46.0993L21.8933 48H26.106L26.7399 46.0993L28.5314 46.9952L31.5106 44.016L30.6139 42.2238L32.5161 41.5906V40.258H39.5939C39.9398 41.5906 41.1423 42.5806 42.5806 42.5806C44.2885 42.5806 45.6774 41.1918 45.6774 39.4839C45.6774 38.0447 44.6866 36.843 43.3548 36.4971V24.7742H48ZM37.1613 23.2258V18.5806H46.4516V23.2258H37.1613ZM13.1613 23.2258H12.3871V17.0323H35.6129V23.2258H13.1613ZM37.1613 12.3871H46.4516V17.0323H37.1613V12.3871ZM35.6129 15.4839H12.3871V9.29032H35.6129V15.4839ZM10.8387 17.0323H1.54839V12.3871H10.8387V17.0323ZM46.4516 6.19355V10.8387H37.1613V6.19355H46.4516ZM35.6129 1.54839V7.74193H12.3871V1.54839H35.6129ZM10.8387 6.19355V10.8387H1.54839V6.19355H10.8387ZM1.54839 18.5806H10.8387V23.2258H1.54839V18.5806ZM5.41935 41.0322C4.5654 41.0322 3.87097 40.3378 3.87097 39.4839C3.87097 38.6299 4.5654 37.9355 5.41935 37.9355C6.27331 37.9355 6.96774 38.6299 6.96774 39.4839C6.96774 40.3378 6.27331 41.0322 5.41935 41.0322ZM8.40612 38.7097C8.12449 37.6266 7.27659 36.7787 6.19355 36.4971V24.7742H23.2258V30.9677H21.8933L21.2593 32.8684L19.4679 31.9725L16.4887 34.9517L17.3853 36.7439L15.4839 37.3771V38.7097H8.40612ZM30.9677 40.4739L29.1887 41.067L29.0587 41.4118C29.0213 41.5101 28.9827 41.6068 28.94 41.7021L28.7899 42.037L29.6269 43.7109L28.2263 45.1115L26.5524 44.2746L26.2171 44.4246C26.1203 44.4681 26.0228 44.5059 25.9238 44.5448L25.5824 44.6756L24.99 46.4516H23.0092L22.4168 44.6756L22.0755 44.5448C21.9764 44.5059 21.8778 44.4674 21.7817 44.4246L21.4468 44.2746L19.7729 45.1115L18.3723 43.7109L19.2093 42.037L19.0592 41.7021C19.0165 41.6068 18.9779 41.5101 18.9405 41.4118L18.8105 41.067L17.0323 40.4739V38.4931L18.8112 37.8999L18.9413 37.5552C18.9787 37.4569 19.0173 37.3601 19.06 37.2649L19.21 36.9299L18.3731 35.256L19.7737 33.8555L21.4476 34.6924L21.7829 34.5423C21.8797 34.4989 21.9772 34.4611 22.0762 34.4221L22.4176 34.2913L23.0099 32.5161H24.9908L25.5832 34.2921L25.9245 34.4229C26.0236 34.4618 26.1222 34.5004 26.2182 34.5431L26.5532 34.6932L28.2271 33.8562L29.6276 35.2568L28.7907 36.9307L28.9408 37.2656C28.9835 37.3609 29.022 37.4576 29.0595 37.5559L29.1895 37.9007L30.9677 38.4938V40.4739ZM44.129 39.4839C44.129 40.3378 43.4346 41.0322 42.5806 41.0322C41.7267 41.0322 41.0322 40.3378 41.0322 39.4839C41.0322 38.6299 41.7267 37.9355 42.5806 37.9355C43.4346 37.9355 44.129 38.6299 44.129 39.4839ZM41.8064 36.4971C40.7234 36.7787 39.8755 37.6266 39.5939 38.7097H32.5161V37.3771L30.6147 36.7439L31.5113 34.9517L28.5321 31.9725L26.7407 32.8684L26.1067 30.9677H24.7742V24.7742H41.8064V36.4971Z"/>
</mask>
<path d="M48 24.7742V4.64516H37.1613V0H10.8387V4.64516H0V24.7742H4.64516V36.4971C3.31338 36.843 2.32258 38.0447 2.32258 39.4839C2.32258 41.1918 3.71144 42.5806 5.41935 42.5806C6.85773 42.5806 8.06023 41.5906 8.40612 40.258H15.4839V41.5906L17.3853 42.2238L16.4887 44.016L19.4679 46.9952L21.2593 46.0993L21.8933 48H26.106L26.7399 46.0993L28.5314 46.9952L31.5106 44.016L30.6139 42.2238L32.5161 41.5906V40.258H39.5939C39.9398 41.5906 41.1423 42.5806 42.5806 42.5806C44.2885 42.5806 45.6774 41.1918 45.6774 39.4839C45.6774 38.0447 44.6866 36.843 43.3548 36.4971V24.7742H48ZM37.1613 23.2258V18.5806H46.4516V23.2258H37.1613ZM13.1613 23.2258H12.3871V17.0323H35.6129V23.2258H13.1613ZM37.1613 12.3871H46.4516V17.0323H37.1613V12.3871ZM35.6129 15.4839H12.3871V9.29032H35.6129V15.4839ZM10.8387 17.0323H1.54839V12.3871H10.8387V17.0323ZM46.4516 6.19355V10.8387H37.1613V6.19355H46.4516ZM35.6129 1.54839V7.74193H12.3871V1.54839H35.6129ZM10.8387 6.19355V10.8387H1.54839V6.19355H10.8387ZM1.54839 18.5806H10.8387V23.2258H1.54839V18.5806ZM5.41935 41.0322C4.5654 41.0322 3.87097 40.3378 3.87097 39.4839C3.87097 38.6299 4.5654 37.9355 5.41935 37.9355C6.27331 37.9355 6.96774 38.6299 6.96774 39.4839C6.96774 40.3378 6.27331 41.0322 5.41935 41.0322ZM8.40612 38.7097C8.12449 37.6266 7.27659 36.7787 6.19355 36.4971V24.7742H23.2258V30.9677H21.8933L21.2593 32.8684L19.4679 31.9725L16.4887 34.9517L17.3853 36.7439L15.4839 37.3771V38.7097H8.40612ZM30.9677 40.4739L29.1887 41.067L29.0587 41.4118C29.0213 41.5101 28.9827 41.6068 28.94 41.7021L28.7899 42.037L29.6269 43.7109L28.2263 45.1115L26.5524 44.2746L26.2171 44.4246C26.1203 44.4681 26.0228 44.5059 25.9238 44.5448L25.5824 44.6756L24.99 46.4516H23.0092L22.4168 44.6756L22.0755 44.5448C21.9764 44.5059 21.8778 44.4674 21.7817 44.4246L21.4468 44.2746L19.7729 45.1115L18.3723 43.7109L19.2093 42.037L19.0592 41.7021C19.0165 41.6068 18.9779 41.5101 18.9405 41.4118L18.8105 41.067L17.0323 40.4739V38.4931L18.8112 37.8999L18.9413 37.5552C18.9787 37.4569 19.0173 37.3601 19.06 37.2649L19.21 36.9299L18.3731 35.256L19.7737 33.8555L21.4476 34.6924L21.7829 34.5423C21.8797 34.4989 21.9772 34.4611 22.0762 34.4221L22.4176 34.2913L23.0099 32.5161H24.9908L25.5832 34.2921L25.9245 34.4229C26.0236 34.4618 26.1222 34.5004 26.2182 34.5431L26.5532 34.6932L28.2271 33.8562L29.6276 35.2568L28.7907 36.9307L28.9408 37.2656C28.9835 37.3609 29.022 37.4576 29.0595 37.5559L29.1895 37.9007L30.9677 38.4938V40.4739ZM44.129 39.4839C44.129 40.3378 43.4346 41.0322 42.5806 41.0322C41.7267 41.0322 41.0322 40.3378 41.0322 39.4839C41.0322 38.6299 41.7267 37.9355 42.5806 37.9355C43.4346 37.9355 44.129 38.6299 44.129 39.4839ZM41.8064 36.4971C40.7234 36.7787 39.8755 37.6266 39.5939 38.7097H32.5161V37.3771L30.6147 36.7439L31.5113 34.9517L28.5321 31.9725L26.7407 32.8684L26.1067 30.9677H24.7742V24.7742H41.8064V36.4971Z" fill="#AFAFAF" stroke="#AFAFAF" stroke-width="0.4" mask="url(#path-1-inside-1)"/>
</svg>
