<svg width="0" height="0" class="hidden" style="display:none">
  <symbol 
  
    xmlns="http://www.w3.org/2000/svg" viewBox="0 0 1025 740" id="principals-cart">
    
    <filter id="f1" x="0" y="0">
      <feGaussianBlur in="SourceGraphic" stdDeviation="15" />
    </filter>
 <g>
    <path  d="M360.399 3.699a3.197 3.197 0 11-6.393 0 3.197 3.197 0 116.393 0zm23.561 0a3.197 3.197 0 01-3.196 3.199 3.197 3.197 0 01-3.196-3.2A3.197 3.197 0 01380.764.5a3.197 3.197 0 013.196 3.199zm23.584 0a3.197 3.197 0 11-6.393 0 3.197 3.197 0 116.393 0zm424.212 0a3.197 3.197 0 11-6.393 0 3.197 3.197 0 116.393 0zM360.399 27.315a3.197 3.197 0 11-6.393 0 3.197 3.197 0 116.393 0zm23.561 0a3.197 3.197 0 01-3.196 3.2 3.197 3.197 0 01-3.196-3.2 3.197 3.197 0 116.392 0zm23.584 0a3.197 3.197 0 11-6.393 0 3.197 3.197 0 116.393 0zm424.212 0a3.197 3.197 0 11-6.393 0 3.197 3.197 0 116.393 0zM124.743 50.954a3.197 3.197 0 11-6.393 0 3.197 3.197 0 116.393 0zm23.561 0a3.197 3.197 0 11-6.393 0 3.197 3.197 0 116.393 0zm23.562 0a3.197 3.197 0 11-6.393 0 3.197 3.197 0 116.393 0zm23.561 0a3.197 3.197 0 11-6.393 0 3.197 3.197 0 116.393 0zm164.972 0a3.197 3.197 0 11-6.393 0 3.197 3.197 0 116.393 0zm23.561 0a3.197 3.197 0 01-3.196 3.2 3.197 3.197 0 01-3.196-3.2 3.197 3.197 0 013.196-3.199 3.197 3.197 0 013.196 3.2zm23.584 0a3.197 3.197 0 11-6.393 0 3.197 3.197 0 116.393 0zm23.561 0a3.197 3.197 0 11-6.393 0 3.197 3.197 0 116.393 0zm23.561 0a3.197 3.197 0 11-6.393 0 3.197 3.197 0 116.393 0zm23.584 0a3.197 3.197 0 11-6.393 0 3.197 3.197 0 116.393 0zm282.8 0a3.197 3.197 0 11-6.393 0 3.197 3.197 0 116.393 0zm23.562 0a3.197 3.197 0 11-6.393 0 3.197 3.197 0 116.393 0zm23.561 0a3.197 3.197 0 11-6.393 0 3.197 3.197 0 116.393 0zm23.583 0a3.197 3.197 0 11-6.393 0 3.197 3.197 0 116.393 0zm23.561 0a3.197 3.197 0 11-6.393 0 3.197 3.197 0 116.393 0zm23.561 0a3.197 3.197 0 01-3.196 3.2 3.197 3.197 0 01-3.196-3.2 3.197 3.197 0 013.196-3.199 3.197 3.197 0 013.196 3.2zM101.16 74.571a3.198 3.198 0 11-6.393 0 3.198 3.198 0 116.393 0zm23.583 0a3.197 3.197 0 11-6.393 0 3.197 3.197 0 116.393 0zm23.561 0a3.197 3.197 0 11-6.393 0 3.197 3.197 0 116.393 0zm23.562 0a3.197 3.197 0 11-6.393 0 3.197 3.197 0 116.393 0zm23.561 0a3.197 3.197 0 11-6.393 0 3.197 3.197 0 116.393 0zm188.533 0a3.197 3.197 0 01-3.196 3.199 3.197 3.197 0 01-3.196-3.199 3.197 3.197 0 116.392 0zm23.584 0a3.197 3.197 0 11-6.393 0 3.197 3.197 0 116.393 0zm23.561 0a3.197 3.197 0 11-6.393 0 3.197 3.197 0 116.393 0zm23.561 0a3.197 3.197 0 11-6.393 0 3.197 3.197 0 116.393 0zm23.584 0a3.197 3.197 0 11-6.393 0 3.197 3.197 0 116.393 0zm23.561 0a3.197 3.197 0 11-6.393 0 3.197 3.197 0 116.393 0zm23.561 0a3.197 3.197 0 11-6.393 0 3.197 3.197 0 116.393 0zm235.678 0a3.197 3.197 0 11-6.393 0 3.197 3.197 0 116.393 0zm23.562 0a3.197 3.197 0 11-6.393 0 3.197 3.197 0 116.393 0zm23.561 0a3.197 3.197 0 11-6.393 0 3.197 3.197 0 116.393 0zm23.583 0a3.197 3.197 0 11-6.393 0 3.197 3.197 0 116.393 0zm23.561 0a3.197 3.197 0 11-6.393 0 3.197 3.197 0 116.393 0zm23.561 0a3.197 3.197 0 01-3.196 3.199 3.197 3.197 0 01-3.196-3.199 3.197 3.197 0 116.392 0zM77.599 98.187a3.197 3.197 0 11-6.393 0 3.198 3.198 0 116.393 0zm23.561 0a3.198 3.198 0 11-3.197-3.198 3.198 3.198 0 013.197 3.198zm23.583 0a3.197 3.197 0 11-6.393 0 3.197 3.197 0 116.393 0zm23.561 0a3.197 3.197 0 11-6.393 0 3.197 3.197 0 116.393 0zm23.562 0a3.197 3.197 0 11-6.393 0 3.197 3.197 0 116.393 0zm282.8 0a3.197 3.197 0 11-6.393 0 3.197 3.197 0 116.393 0zm23.584 0a3.197 3.197 0 11-6.393 0 3.197 3.197 0 116.393 0zm23.561 0a3.197 3.197 0 11-6.393 0 3.197 3.197 0 116.393 0zm23.561 0a3.197 3.197 0 11-6.393 0 3.197 3.197 0 116.393 0zm23.561 0a3.197 3.197 0 11-6.393 0 3.197 3.197 0 116.393 0zm23.583 0a3.197 3.197 0 11-6.392 0 3.197 3.197 0 116.392 0zm188.534 0a3.197 3.197 0 11-6.393 0 3.197 3.197 0 116.393 0zm23.562 0a3.197 3.197 0 11-6.393 0 3.197 3.197 0 116.393 0zm23.561 0a3.197 3.197 0 11-6.393 0 3.197 3.197 0 116.393 0zm23.583 0a3.197 3.197 0 11-6.393 0 3.197 3.197 0 116.393 0zm23.561 0a3.197 3.197 0 11-6.393 0 3.197 3.197 0 116.393 0zM77.599 121.826a3.198 3.198 0 01-3.197 3.199 3.198 3.198 0 01-3.196-3.199 3.197 3.197 0 116.393 0zm23.561 0a3.198 3.198 0 01-3.197 3.199 3.198 3.198 0 01-3.196-3.199 3.197 3.197 0 116.393 0zm23.583 0a3.197 3.197 0 11-3.196-3.198 3.197 3.197 0 013.196 3.198zm47.123 0a3.197 3.197 0 11-6.393 0 3.197 3.197 0 116.393 0zm235.678 0a3.197 3.197 0 11-3.196-3.198 3.197 3.197 0 013.196 3.198zm47.122 0a3.197 3.197 0 11-3.196-3.198 3.197 3.197 0 013.196 3.198zm23.584 0a3.197 3.197 0 11-6.393 0 3.197 3.197 0 116.393 0zm23.561 0a3.197 3.197 0 11-6.393 0 3.197 3.197 0 116.393 0zm23.561 0a3.197 3.197 0 11-3.196-3.198 3.197 3.197 0 013.196 3.198zm23.561 0a3.197 3.197 0 11-3.196-3.198 3.197 3.197 0 013.196 3.198zm23.583 0a3.197 3.197 0 01-3.196 3.199 3.197 3.197 0 01-3.196-3.199 3.197 3.197 0 116.392 0zm23.562 0a3.197 3.197 0 11-6.393 0 3.197 3.197 0 116.393 0zm23.561 0a3.197 3.197 0 11-6.393 0 3.197 3.197 0 116.393 0zm164.973 0a3.197 3.197 0 11-6.393 0 3.197 3.197 0 116.393 0zm23.561 0a3.197 3.197 0 11-6.393 0 3.197 3.197 0 116.393 0zm23.583 0a3.197 3.197 0 11-3.196-3.198 3.197 3.197 0 013.196 3.198zm23.561 0a3.197 3.197 0 11-3.196-3.198 3.197 3.197 0 013.196 3.198zm47.123 0a3.197 3.197 0 11-6.393 0 3.197 3.197 0 116.393 0zm23.583 0a3.197 3.197 0 11-3.196-3.198 3.197 3.197 0 013.196 3.198zm23.561 0a3.197 3.197 0 11-3.196-3.198 3.197 3.197 0 013.196 3.198zm-542.04 23.617a3.197 3.197 0 11-6.393 0 3.197 3.197 0 116.393 0zm47.122 0a3.197 3.197 0 11-6.393 0 3.197 3.197 0 116.393 0zm23.584 0a3.197 3.197 0 11-6.393 0 3.197 3.197 0 116.393 0zm23.561 0a3.197 3.197 0 11-6.393 0 3.197 3.197 0 116.393 0zm23.561 0a3.197 3.197 0 11-6.393 0 3.197 3.197 0 116.393 0z" stroke="#AFAFAF"></path></g>
    <g id="red-icon"><path d="M548.933 145.443a3.197 3.197 0 11-6.393 0 3.197 3.197 0 116.393 0z" ></path></g>
    <path filter="url(#f1)" d="M572.516 145.443a3.197 3.197 0 01-3.196 3.199 3.197 3.197 0 01-3.196-3.199 3.197 3.197 0 013.196-3.199 3.197 3.197 0 013.196 3.199zm23.562 0a3.197 3.197 0 11-6.393 0 3.197 3.197 0 116.393 0zm23.561 0a3.197 3.197 0 11-6.393 0 3.197 3.197 0 116.393 0zm94.267 0a3.197 3.197 0 11-6.393 0 3.197 3.197 0 116.393 0zm23.561 0a3.197 3.197 0 11-6.393 0 3.197 3.197 0 116.393 0zm23.583 0a3.197 3.197 0 11-6.393 0 3.197 3.197 0 116.393 0zm94.267 0a3.197 3.197 0 11-6.393 0 3.197 3.197 0 116.393 0zm23.561 0a3.197 3.197 0 01-3.196 3.199 3.197 3.197 0 01-3.196-3.199 3.197 3.197 0 013.196-3.199 3.197 3.197 0 013.196 3.199zm23.562 0a3.197 3.197 0 11-6.393 0 3.197 3.197 0 116.393 0zm23.583 0a3.197 3.197 0 11-6.393 0 3.197 3.197 0 116.393 0zm23.561 0a3.197 3.197 0 11-6.393 0 3.197 3.197 0 116.393 0zm23.561 0a3.197 3.197 0 11-6.393 0 3.197 3.197 0 116.393 0zm23.561 0a3.197 3.197 0 11-6.393 0 3.197 3.197 0 116.393 0zm23.584 0a3.196 3.196 0 11-6.39 0 3.196 3.196 0 116.39 0zM242.571 169.06a3.197 3.197 0 11-6.393 0 3.197 3.197 0 116.393 0zm23.561 0a3.197 3.197 0 11-6.392 0 3.197 3.197 0 013.196-3.199 3.197 3.197 0 013.196 3.199zm117.828 0a3.197 3.197 0 11-6.392 0 3.197 3.197 0 013.196-3.199 3.197 3.197 0 013.196 3.199zm47.145 0a3.197 3.197 0 11-6.393 0 3.197 3.197 0 116.393 0zm23.561 0a3.197 3.197 0 11-6.393 0 3.197 3.197 0 116.393 0zm23.584 0a3.197 3.197 0 11-3.197-3.199 3.198 3.198 0 013.197 3.199zm23.561 0a3.197 3.197 0 11-3.197-3.199 3.198 3.198 0 013.197 3.199zm23.561 0a3.197 3.197 0 11-6.393 0 3.197 3.197 0 116.393 0zm23.561 0a3.197 3.197 0 11-6.393 0 3.197 3.197 0 116.393 0zm23.583 0a3.197 3.197 0 11-6.392 0 3.197 3.197 0 013.196-3.199 3.197 3.197 0 013.196 3.199zm23.562 0a3.197 3.197 0 11-3.197-3.199 3.198 3.198 0 013.197 3.199zm23.561 0a3.197 3.197 0 11-3.197-3.199 3.198 3.198 0 013.197 3.199zm23.561 0a3.197 3.197 0 11-3.197-3.199 3.198 3.198 0 013.197 3.199zm23.584 0a3.197 3.197 0 11-3.197-3.199 3.198 3.198 0 013.197 3.199zm23.561 0a3.197 3.197 0 11-3.197-3.199 3.198 3.198 0 013.197 3.199zm23.561 0a3.197 3.197 0 11-3.197-3.199 3.198 3.198 0 013.197 3.199zm23.561 0a3.197 3.197 0 11-3.197-3.199 3.198 3.198 0 013.197 3.199zm23.583 0a3.197 3.197 0 11-6.393 0 3.197 3.197 0 116.393 0zm23.562 0a3.197 3.197 0 11-3.197-3.199 3.198 3.198 0 013.197 3.199zm23.561 0a3.197 3.197 0 11-3.197-3.199 3.198 3.198 0 013.197 3.199zm23.583 0a3.197 3.197 0 11-6.393 0 3.197 3.197 0 116.393 0zm23.561 0a3.197 3.197 0 11-6.393 0 3.197 3.197 0 116.393 0zm23.561 0a3.197 3.197 0 11-6.392 0 3.197 3.197 0 013.196-3.199 3.197 3.197 0 013.196 3.199zm23.562 0a3.197 3.197 0 11-3.197-3.199 3.198 3.198 0 013.197 3.199zm23.583 0a3.197 3.197 0 11-6.393 0 3.197 3.197 0 116.393 0zm23.561 0a3.197 3.197 0 11-6.393 0 3.197 3.197 0 116.393 0zm23.561 0a3.197 3.197 0 11-3.197-3.199 3.198 3.198 0 013.197 3.199zm23.561 0a3.197 3.197 0 11-3.197-3.199 3.198 3.198 0 013.197 3.199zm23.584 0a3.195 3.195 0 11-6.39 0 3.196 3.196 0 116.39 0zm-801.28 23.616a3.197 3.197 0 11-6.393 0 3.197 3.197 0 116.393 0zm23.561 0a3.197 3.197 0 11-6.393 0 3.197 3.197 0 116.393 0zm23.561 0a3.197 3.197 0 01-3.196 3.199 3.197 3.197 0 01-3.196-3.199 3.197 3.197 0 013.196-3.199 3.197 3.197 0 013.196 3.199zm117.828 0a3.197 3.197 0 01-3.196 3.199 3.197 3.197 0 01-3.196-3.199 3.197 3.197 0 013.196-3.199 3.197 3.197 0 013.196 3.199zm23.584 0a3.197 3.197 0 11-6.393 0 3.197 3.197 0 116.393 0zm23.561 0a3.197 3.197 0 11-6.393 0 3.197 3.197 0 116.393 0zm23.561 0a3.197 3.197 0 11-6.393 0 3.197 3.197 0 116.393 0zm23.584 0a3.197 3.197 0 11-6.393 0 3.197 3.197 0 116.393 0z" stroke="#AFAFAF"></path>
    <path class="red-dot" d="M501.811 192.676a3.197 3.197 0 11-6.393 0 3.197 3.197 0 116.393 0z" fill="#C91226"  stroke="blur"></path>
    <path d="M525.372 192.676a3.197 3.197 0 11-6.393 0 3.197 3.197 0 116.393 0zm23.561 0a3.197 3.197 0 11-6.393 0 3.197 3.197 0 116.393 0zm23.583 0a3.197 3.197 0 01-3.196 3.199 3.197 3.197 0 01-3.196-3.199 3.197 3.197 0 013.196-3.199 3.197 3.197 0 013.196 3.199zm23.562 0a3.197 3.197 0 11-6.393 0 3.197 3.197 0 116.393 0zm23.561 0a3.197 3.197 0 11-6.393 0 3.197 3.197 0 116.393 0zm23.561 0a3.197 3.197 0 11-6.393 0 3.197 3.197 0 116.393 0zm23.584 0a3.197 3.197 0 11-6.393 0 3.197 3.197 0 116.393 0zm23.561 0a3.197 3.197 0 11-6.393 0 3.197 3.197 0 116.393 0zm23.561 0a3.197 3.197 0 11-6.393 0 3.197 3.197 0 116.393 0zm23.561 0a3.197 3.197 0 11-6.393 0 3.197 3.197 0 116.393 0zm23.583 0a3.197 3.197 0 11-6.393 0 3.197 3.197 0 116.393 0zm23.562 0a3.197 3.197 0 11-6.393 0 3.197 3.197 0 116.393 0zm23.561 0a3.197 3.197 0 11-6.393 0 3.197 3.197 0 116.393 0zm23.583 0a3.197 3.197 0 11-6.393 0 3.197 3.197 0 116.393 0zm23.561 0a3.197 3.197 0 11-6.393 0 3.197 3.197 0 116.393 0zm23.561 0a3.197 3.197 0 01-3.196 3.199 3.197 3.197 0 01-3.196-3.199 3.197 3.197 0 013.196-3.199 3.197 3.197 0 013.196 3.199zm23.562 0a3.197 3.197 0 11-6.393 0 3.197 3.197 0 116.393 0zm23.583 0a3.197 3.197 0 11-6.393 0 3.197 3.197 0 116.393 0zm23.561 0a3.197 3.197 0 11-6.393 0 3.197 3.197 0 116.393 0zm23.561 0a3.197 3.197 0 11-6.393 0 3.197 3.197 0 116.393 0zm23.561 0a3.197 3.197 0 11-6.393 0 3.197 3.197 0 116.393 0zm23.584 0a3.196 3.196 0 11-6.39 0 3.196 3.196 0 116.39 0zm-824.863 23.639a3.197 3.197 0 11-6.393 0 3.197 3.197 0 116.393 0zm23.583 0a3.197 3.197 0 11-6.393 0 3.197 3.197 0 116.393 0zm23.561 0a3.197 3.197 0 11-6.393 0 3.197 3.197 0 116.393 0zm23.561 0a3.197 3.197 0 01-3.196 3.199 3.197 3.197 0 01-3.196-3.199 3.197 3.197 0 013.196-3.199 3.197 3.197 0 013.196 3.199zm94.267 0a3.197 3.197 0 11-6.393 0 3.197 3.197 0 116.393 0zm23.561 0a3.197 3.197 0 01-3.196 3.199 3.197 3.197 0 01-3.196-3.199 3.197 3.197 0 013.196-3.199 3.197 3.197 0 013.196 3.199zm23.584 0a3.197 3.197 0 11-6.393 0 3.197 3.197 0 116.393 0zm23.561 0a3.197 3.197 0 11-6.393 0 3.197 3.197 0 116.393 0zm23.561 0a3.197 3.197 0 11-6.393 0 3.197 3.197 0 116.393 0zm23.584 0a3.197 3.197 0 11-6.393 0 3.197 3.197 0 116.393 0zm23.561 0a3.197 3.197 0 11-6.393 0 3.197 3.197 0 116.393 0zm23.561 0a3.197 3.197 0 11-6.393 0 3.197 3.197 0 116.393 0zm23.561 0a3.197 3.197 0 11-6.393 0 3.197 3.197 0 116.393 0zm23.583 0a3.197 3.197 0 01-3.196 3.199 3.197 3.197 0 01-3.196-3.199 3.197 3.197 0 013.196-3.199 3.197 3.197 0 013.196 3.199zm23.562 0a3.197 3.197 0 11-6.393 0 3.197 3.197 0 116.393 0zm23.561 0a3.197 3.197 0 11-6.393 0 3.197 3.197 0 116.393 0zm23.561 0a3.197 3.197 0 11-6.393 0 3.197 3.197 0 116.393 0zm23.584 0a3.197 3.197 0 11-6.393 0 3.197 3.197 0 116.393 0zm23.561 0a3.197 3.197 0 11-6.393 0 3.197 3.197 0 116.393 0zm23.561 0a3.197 3.197 0 11-6.393 0 3.197 3.197 0 116.393 0zm23.561 0a3.197 3.197 0 11-6.393 0 3.197 3.197 0 116.393 0zm23.583 0a3.197 3.197 0 11-6.393 0 3.197 3.197 0 116.393 0zm23.562 0a3.197 3.197 0 11-6.393 0 3.197 3.197 0 116.393 0zm23.561 0a3.197 3.197 0 11-6.393 0 3.197 3.197 0 116.393 0zm23.583 0a3.197 3.197 0 11-6.393 0 3.197 3.197 0 116.393 0zm23.561 0a3.197 3.197 0 11-6.393 0 3.197 3.197 0 116.393 0zm23.561 0a3.197 3.197 0 01-3.196 3.199 3.197 3.197 0 01-3.196-3.199 3.197 3.197 0 013.196-3.199 3.197 3.197 0 013.196 3.199zm23.562 0a3.197 3.197 0 11-6.393 0 3.197 3.197 0 116.393 0zm23.583 0a3.197 3.197 0 11-6.393 0 3.197 3.197 0 116.393 0zm23.561 0a3.197 3.197 0 11-6.393 0 3.197 3.197 0 116.393 0zm23.561 0a3.197 3.197 0 11-6.393 0 3.197 3.197 0 116.393 0zm23.561 0a3.197 3.197 0 11-6.393 0 3.197 3.197 0 116.393 0zm23.584 0a3.196 3.196 0 11-6.39 0 3.196 3.196 0 116.39 0zm-824.863 23.617a3.197 3.197 0 11-3.197-3.199 3.198 3.198 0 013.197 3.199zm23.583 0a3.197 3.197 0 11-6.393 0 3.197 3.197 0 116.393 0zm23.561 0a3.197 3.197 0 11-6.393 0 3.197 3.197 0 116.393 0zm70.706 0a3.197 3.197 0 11-3.197-3.199 3.198 3.198 0 013.197 3.199zm23.561 0a3.197 3.197 0 11-6.393 0 3.197 3.197 0 116.393 0zm23.561 0a3.197 3.197 0 11-6.393 0 3.197 3.197 0 116.393 0zm23.561 0a3.197 3.197 0 11-6.392 0 3.197 3.197 0 013.196-3.199 3.197 3.197 0 013.196 3.199zm23.584 0a3.197 3.197 0 11-6.393 0 3.197 3.197 0 116.393 0z" stroke="#AFAFAF"></path>
    <path  class="red-dot"  d="M431.105 239.932a3.197 3.197 0 11-6.393 0 3.197 3.197 0 116.393 0z" fill="#C91226" stroke="#C91226"></path>
    <path d="M454.666 239.932a3.197 3.197 0 11-6.393 0 3.197 3.197 0 116.393 0zm23.584 0a3.197 3.197 0 11-3.197-3.199 3.198 3.198 0 013.197 3.199zm23.561 0a3.197 3.197 0 11-3.197-3.199 3.198 3.198 0 013.197 3.199zm23.561 0a3.197 3.197 0 11-6.393 0 3.197 3.197 0 116.393 0zm23.561 0a3.197 3.197 0 11-6.393 0 3.197 3.197 0 116.393 0zm23.583 0a3.197 3.197 0 11-6.392 0 3.197 3.197 0 013.196-3.199 3.197 3.197 0 013.196 3.199zm23.562 0a3.197 3.197 0 11-3.197-3.199 3.198 3.198 0 013.197 3.199zm23.561 0a3.197 3.197 0 11-3.197-3.199 3.198 3.198 0 013.197 3.199zm23.561 0a3.197 3.197 0 11-3.197-3.199 3.198 3.198 0 013.197 3.199zm23.584 0a3.197 3.197 0 11-3.197-3.199 3.198 3.198 0 013.197 3.199zm23.561 0a3.197 3.197 0 11-3.197-3.199 3.198 3.198 0 013.197 3.199zm23.561 0a3.197 3.197 0 11-3.197-3.199 3.198 3.198 0 013.197 3.199zm23.561 0a3.197 3.197 0 11-6.393 0 3.197 3.197 0 116.393 0zm23.583 0a3.197 3.197 0 11-6.393 0 3.197 3.197 0 116.393 0zm23.562 0a3.197 3.197 0 11-3.197-3.199 3.198 3.198 0 013.197 3.199zm23.561 0a3.197 3.197 0 11-6.393 0 3.197 3.197 0 116.393 0zm23.583 0a3.197 3.197 0 11-6.393 0 3.197 3.197 0 116.393 0zm23.561 0a3.197 3.197 0 11-6.393 0 3.197 3.197 0 116.393 0zm23.561 0a3.197 3.197 0 11-6.392 0 3.197 3.197 0 013.196-3.199 3.197 3.197 0 013.196 3.199zm23.562 0a3.197 3.197 0 11-6.393 0 3.197 3.197 0 116.393 0zm23.583 0a3.197 3.197 0 11-6.393 0 3.197 3.197 0 116.393 0zm23.561 0a3.197 3.197 0 11-6.393 0 3.197 3.197 0 116.393 0zm23.561 0a3.197 3.197 0 11-3.197-3.199 3.198 3.198 0 013.197 3.199zm23.561 0a3.197 3.197 0 11-3.197-3.199 3.198 3.198 0 013.197 3.199zm23.584 0a3.195 3.195 0 11-6.39 0 3.196 3.196 0 116.39 0zm-824.863 23.616a3.197 3.197 0 11-6.393 0 3.197 3.197 0 116.393 0zm23.583 0a3.197 3.197 0 11-6.393 0 3.197 3.197 0 116.393 0zm94.267 0a3.197 3.197 0 11-6.393 0 3.197 3.197 0 116.393 0zm23.561 0a3.197 3.197 0 11-6.393 0 3.197 3.197 0 116.393 0zm23.561 0a3.197 3.197 0 11-6.393 0 3.197 3.197 0 116.393 0zm23.561 0a3.197 3.197 0 01-3.196 3.199 3.197 3.197 0 01-3.196-3.199 3.197 3.197 0 013.196-3.199 3.197 3.197 0 013.196 3.199z" stroke="#AFAFAF"></path>
    <path class="red-dot" d="M407.544 263.548a3.197 3.197 0 11-6.393 0 3.197 3.197 0 116.393 0z" fill="#C91226" stroke="#C91226"></path>
    <path d="M431.105 263.548a3.197 3.197 0 11-6.393 0 3.197 3.197 0 116.393 0zm23.561 0a3.197 3.197 0 11-6.393 0 3.197 3.197 0 116.393 0zm23.584 0a3.197 3.197 0 11-6.393 0 3.197 3.197 0 116.393 0zm23.561 0a3.197 3.197 0 11-6.393 0 3.197 3.197 0 116.393 0zm23.561 0a3.197 3.197 0 11-6.393 0 3.197 3.197 0 116.393 0zm23.561 0a3.197 3.197 0 11-6.393 0 3.197 3.197 0 116.393 0zm23.583 0a3.197 3.197 0 01-3.196 3.199 3.197 3.197 0 01-3.196-3.199 3.197 3.197 0 013.196-3.199 3.197 3.197 0 013.196 3.199zm23.562 0a3.197 3.197 0 11-6.393 0 3.197 3.197 0 116.393 0zm23.561 0a3.197 3.197 0 11-6.393 0 3.197 3.197 0 116.393 0zm23.561 0a3.197 3.197 0 11-6.393 0 3.197 3.197 0 116.393 0zm23.584 0a3.197 3.197 0 11-6.393 0 3.197 3.197 0 116.393 0zm23.561 0a3.197 3.197 0 11-6.393 0 3.197 3.197 0 116.393 0zm23.561 0a3.197 3.197 0 11-6.393 0 3.197 3.197 0 116.393 0zm23.561 0a3.197 3.197 0 11-6.393 0 3.197 3.197 0 116.393 0zm23.583 0a3.197 3.197 0 11-6.393 0 3.197 3.197 0 116.393 0zm23.562 0a3.197 3.197 0 11-6.393 0 3.197 3.197 0 116.393 0zm23.561 0a3.197 3.197 0 11-6.393 0 3.197 3.197 0 116.393 0zm23.583 0a3.197 3.197 0 11-6.393 0 3.197 3.197 0 116.393 0zm23.561 0a3.197 3.197 0 11-6.393 0 3.197 3.197 0 116.393 0zm23.561 0a3.197 3.197 0 01-3.196 3.199 3.197 3.197 0 01-3.196-3.199 3.197 3.197 0 013.196-3.199 3.197 3.197 0 013.196 3.199zm23.562 0a3.197 3.197 0 11-6.393 0 3.197 3.197 0 116.393 0zm23.583 0a3.197 3.197 0 11-6.393 0 3.197 3.197 0 116.393 0zm23.561 0a3.197 3.197 0 11-6.393 0 3.197 3.197 0 116.393 0zm23.561 0a3.197 3.197 0 11-6.393 0 3.197 3.197 0 116.393 0zm23.561 0a3.197 3.197 0 11-6.393 0 3.197 3.197 0 116.393 0zm23.584 0a3.196 3.196 0 11-6.39 0 3.196 3.196 0 116.39 0zm-824.863 23.617a3.197 3.197 0 11-3.197-3.199 3.198 3.198 0 013.197 3.199zm23.583 0a3.197 3.197 0 11-6.393 0 3.197 3.197 0 116.393 0zm94.267 0a3.197 3.197 0 11-3.197-3.199 3.198 3.198 0 013.197 3.199zm23.561 0a3.197 3.197 0 11-6.393 0 3.197 3.197 0 116.393 0zm23.561 0a3.197 3.197 0 11-6.393 0 3.197 3.197 0 116.393 0zm23.561 0a3.197 3.197 0 11-6.392 0 3.197 3.197 0 013.196-3.199 3.197 3.197 0 013.196 3.199zm23.584 0a3.197 3.197 0 11-6.393 0 3.197 3.197 0 116.393 0zm23.561 0a3.197 3.197 0 11-6.393 0 3.197 3.197 0 116.393 0zm23.561 0a3.197 3.197 0 11-6.393 0 3.197 3.197 0 116.393 0zm23.584 0a3.197 3.197 0 11-3.197-3.199 3.198 3.198 0 013.197 3.199zm23.561 0a3.197 3.197 0 11-3.197-3.199 3.198 3.198 0 013.197 3.199z" stroke="#AFAFAF"></path>
    <path class="red-dot" d="M525.372 287.165a3.197 3.197 0 11-6.393 0 3.197 3.197 0 116.393 0z" fill="#C91226" stroke="#C91226"></path>
    <path d="M548.933 287.165a3.197 3.197 0 11-6.393 0 3.197 3.197 0 116.393 0zm23.583 0a3.197 3.197 0 11-6.392 0 3.197 3.197 0 013.196-3.199 3.197 3.197 0 013.196 3.199zm23.562 0a3.197 3.197 0 11-3.197-3.199 3.198 3.198 0 013.197 3.199zm23.561 0a3.197 3.197 0 11-3.197-3.199 3.198 3.198 0 013.197 3.199zm23.561 0a3.197 3.197 0 11-3.197-3.199 3.198 3.198 0 013.197 3.199zm23.584 0a3.197 3.197 0 11-3.197-3.199 3.198 3.198 0 013.197 3.199zm23.561 0a3.197 3.197 0 11-3.197-3.199 3.198 3.198 0 013.197 3.199zm23.561 0a3.197 3.197 0 11-3.197-3.199 3.198 3.198 0 013.197 3.199zm23.561 0a3.197 3.197 0 11-3.197-3.199 3.198 3.198 0 013.197 3.199zm23.583 0a3.197 3.197 0 11-6.393 0 3.197 3.197 0 116.393 0zm23.562 0a3.197 3.197 0 11-3.197-3.199 3.198 3.198 0 013.197 3.199zm23.561 0a3.197 3.197 0 11-3.197-3.199 3.198 3.198 0 013.197 3.199zm23.583 0a3.197 3.197 0 11-6.393 0 3.197 3.197 0 116.393 0zm23.561 0a3.197 3.197 0 11-6.393 0 3.197 3.197 0 116.393 0zm23.561 0a3.197 3.197 0 11-6.392 0 3.197 3.197 0 013.196-3.199 3.197 3.197 0 013.196 3.199zm23.562 0a3.197 3.197 0 11-3.197-3.199 3.198 3.198 0 013.197 3.199zm23.583 0a3.197 3.197 0 11-6.393 0 3.197 3.197 0 116.393 0zm23.561 0a3.197 3.197 0 11-6.393 0 3.197 3.197 0 116.393 0zm23.561 0a3.197 3.197 0 11-3.197-3.199 3.198 3.198 0 013.197 3.199zm23.561 0a3.197 3.197 0 11-3.197-3.199 3.198 3.198 0 013.197 3.199zm23.584 0a3.195 3.195 0 11-6.39 0 3.196 3.196 0 116.39 0zm-824.863 23.639a3.197 3.197 0 11-6.393 0 3.197 3.197 0 116.393 0zm23.583 0a3.197 3.197 0 11-6.393 0 3.197 3.197 0 116.393 0zm23.561 0a3.197 3.197 0 11-6.393 0 3.197 3.197 0 116.393 0zm70.706 0a3.197 3.197 0 11-6.393 0 3.197 3.197 0 116.393 0zm23.561 0a3.197 3.197 0 11-6.393 0 3.197 3.197 0 116.393 0zm23.561 0a3.197 3.197 0 11-6.393 0 3.197 3.197 0 116.393 0zm23.561 0a3.197 3.197 0 01-3.196 3.199 3.197 3.197 0 01-3.196-3.199 3.197 3.197 0 013.196-3.199 3.197 3.197 0 013.196 3.199zm23.584 0a3.197 3.197 0 11-6.393 0 3.197 3.197 0 116.393 0zm23.561 0a3.197 3.197 0 11-6.393 0 3.197 3.197 0 116.393 0zm23.561 0a3.197 3.197 0 11-6.393 0 3.197 3.197 0 116.393 0zm23.584 0a3.197 3.197 0 11-6.393 0 3.197 3.197 0 116.393 0zm23.561 0a3.197 3.197 0 11-6.393 0 3.197 3.197 0 116.393 0zm23.561 0a3.197 3.197 0 11-6.393 0 3.197 3.197 0 116.393 0zm23.561 0a3.197 3.197 0 11-6.393 0 3.197 3.197 0 116.393 0zm23.583 0a3.197 3.197 0 01-3.196 3.199 3.197 3.197 0 01-3.196-3.199 3.197 3.197 0 013.196-3.199 3.197 3.197 0 013.196 3.199z" stroke="#AFAFAF"></path>
    <path  class="red-dot" d="M596.078 310.804a3.197 3.197 0 11-6.393 0 3.197 3.197 0 116.393 0z" fill="#C91226" stroke="#C91226"></path>
    <path d="M619.639 310.804a3.197 3.197 0 11-6.393 0 3.197 3.197 0 116.393 0zm23.561 0a3.197 3.197 0 11-6.393 0 3.197 3.197 0 116.393 0zm23.584 0a3.197 3.197 0 11-6.393 0 3.197 3.197 0 116.393 0zm23.561 0a3.197 3.197 0 11-6.393 0 3.197 3.197 0 116.393 0zm23.561 0a3.197 3.197 0 11-6.393 0 3.197 3.197 0 116.393 0zm23.561 0a3.197 3.197 0 11-6.393 0 3.197 3.197 0 116.393 0zm23.583 0a3.197 3.197 0 11-6.393 0 3.197 3.197 0 116.393 0zm23.562 0a3.197 3.197 0 11-6.393 0 3.197 3.197 0 116.393 0zm23.561 0a3.197 3.197 0 11-6.393 0 3.197 3.197 0 116.393 0zm23.583 0a3.197 3.197 0 11-6.393 0 3.197 3.197 0 116.393 0zm23.561 0a3.197 3.197 0 11-6.393 0 3.197 3.197 0 116.393 0zm23.561 0a3.197 3.197 0 01-3.196 3.199 3.197 3.197 0 01-3.196-3.199 3.197 3.197 0 013.196-3.199 3.197 3.197 0 013.196 3.199zm23.562 0a3.197 3.197 0 11-6.393 0 3.197 3.197 0 116.393 0zm23.583 0a3.197 3.197 0 11-6.393 0 3.197 3.197 0 116.393 0zm23.561 0a3.197 3.197 0 11-6.393 0 3.197 3.197 0 116.393 0zm23.561 0a3.197 3.197 0 11-6.393 0 3.197 3.197 0 116.393 0zm23.561 0a3.197 3.197 0 11-6.393 0 3.197 3.197 0 116.393 0zm23.584 0a3.196 3.196 0 11-6.39 0 3.196 3.196 0 116.39 0zM219.01 334.42a3.197 3.197 0 11-3.196-3.198 3.197 3.197 0 013.196 3.198zm23.561 0a3.197 3.197 0 11-3.196-3.198 3.197 3.197 0 013.196 3.198zm23.561 0a3.197 3.197 0 01-3.196 3.199 3.197 3.197 0 01-3.196-3.199 3.197 3.197 0 116.392 0zm23.562 0a3.197 3.197 0 11-6.393 0 3.197 3.197 0 116.393 0zm23.583 0a3.197 3.197 0 11-6.393 0 3.197 3.197 0 116.393 0zm23.561 0a3.197 3.197 0 11-3.196-3.198 3.197 3.197 0 013.196 3.198zm23.561 0a3.197 3.197 0 11-3.196-3.198 3.197 3.197 0 013.196 3.198zm23.561 0a3.197 3.197 0 01-3.196 3.199 3.197 3.197 0 01-3.196-3.199 3.197 3.197 0 116.392 0zm23.584 0a3.197 3.197 0 11-3.196-3.198 3.197 3.197 0 013.196 3.198zm23.561 0a3.197 3.197 0 11-3.196-3.198 3.197 3.197 0 013.196 3.198z" stroke="#AFAFAF"></path>
    <path class="red-dot"  d="M454.666 334.42a3.197 3.197 0 11-3.196-3.198 3.197 3.197 0 013.196 3.198z" fill="#C91226" stroke="#C91226"></path>
    <path d="M478.25 334.42a3.197 3.197 0 11-6.393 0 3.197 3.197 0 116.393 0zm23.561 0a3.197 3.197 0 11-6.393 0 3.197 3.197 0 116.393 0zm23.561 0a3.198 3.198 0 01-3.196 3.199 3.198 3.198 0 010-6.397 3.197 3.197 0 013.196 3.198zm23.561 0a3.197 3.197 0 11-3.196-3.198 3.197 3.197 0 013.196 3.198zm23.583 0a3.197 3.197 0 01-3.196 3.199 3.197 3.197 0 01-3.196-3.199 3.197 3.197 0 116.392 0zm23.562 0a3.197 3.197 0 11-6.393 0 3.197 3.197 0 116.393 0zm23.561 0a3.197 3.197 0 11-6.393 0 3.197 3.197 0 116.393 0zm23.561 0a3.197 3.197 0 11-6.393 0 3.197 3.197 0 116.393 0zm23.584 0a3.197 3.197 0 11-6.393 0 3.197 3.197 0 116.393 0zm23.561 0a3.197 3.197 0 11-6.393 0 3.197 3.197 0 116.393 0zm23.561 0a3.197 3.197 0 11-6.393 0 3.197 3.197 0 116.393 0zm23.561 0a3.197 3.197 0 11-6.393 0 3.197 3.197 0 116.393 0zm23.583 0a3.197 3.197 0 11-3.196-3.198 3.197 3.197 0 013.196 3.198zm23.562 0a3.197 3.197 0 11-6.393 0 3.197 3.197 0 116.393 0zm23.561 0a3.197 3.197 0 11-6.393 0 3.197 3.197 0 116.393 0zm23.583 0a3.197 3.197 0 11-3.196-3.198 3.197 3.197 0 013.196 3.198zm23.561 0a3.197 3.197 0 11-3.196-3.198 3.197 3.197 0 013.196 3.198zm23.561 0a3.197 3.197 0 01-3.196 3.199 3.197 3.197 0 01-3.196-3.199 3.197 3.197 0 116.392 0zm23.562 0a3.197 3.197 0 11-6.393 0 3.197 3.197 0 116.393 0zm23.583 0a3.197 3.197 0 11-3.196-3.198 3.197 3.197 0 013.196 3.198zm23.561 0a3.197 3.197 0 11-3.196-3.198 3.197 3.197 0 013.196 3.198zm23.561 0a3.197 3.197 0 11-6.393 0 3.197 3.197 0 116.393 0zm23.561 0a3.197 3.197 0 11-6.393 0 3.197 3.197 0 116.393 0zm23.584 0a3.196 3.196 0 11-6.39 0 3.195 3.195 0 116.39 0zM6.893 358.037a3.198 3.198 0 01-3.197 3.199A3.198 3.198 0 01.5 358.037a3.198 3.198 0 013.196-3.199 3.198 3.198 0 013.197 3.199zm23.561 0a3.198 3.198 0 01-3.197 3.199 3.198 3.198 0 01-3.196-3.199 3.198 3.198 0 013.197-3.199 3.198 3.198 0 013.196 3.199zm23.583 0a3.198 3.198 0 01-3.196 3.199 3.198 3.198 0 01-3.196-3.199 3.198 3.198 0 013.196-3.199 3.198 3.198 0 013.196 3.199zm23.562 0a3.198 3.198 0 01-3.197 3.199 3.198 3.198 0 01-3.196-3.199 3.198 3.198 0 013.196-3.199 3.198 3.198 0 013.197 3.199zm70.705 0a3.197 3.197 0 11-6.393 0 3.197 3.197 0 116.393 0zm23.562 0a3.197 3.197 0 11-6.393 0 3.197 3.197 0 116.393 0zm23.561 0a3.197 3.197 0 11-6.393 0 3.197 3.197 0 116.393 0zm23.583 0a3.197 3.197 0 11-6.393 0 3.197 3.197 0 116.393 0zm23.561 0a3.197 3.197 0 11-6.393 0 3.197 3.197 0 116.393 0zm23.561 0a3.197 3.197 0 01-3.196 3.199 3.197 3.197 0 01-3.196-3.199 3.197 3.197 0 013.196-3.199 3.197 3.197 0 013.196 3.199zm23.562 0a3.197 3.197 0 11-6.393 0 3.197 3.197 0 116.393 0z" stroke="#AFAFAF"></path>
    <path  class="red-dot" d="M313.277 358.037a3.197 3.197 0 11-6.393 0 3.197 3.197 0 116.393 0z" fill="#C91226" stroke="#C91226"></path>
    <path d="M336.838 358.037a3.197 3.197 0 11-6.393 0 3.197 3.197 0 116.393 0zm23.561 0a3.197 3.197 0 11-6.393 0 3.197 3.197 0 116.393 0zm23.561 0a3.197 3.197 0 01-3.196 3.199 3.197 3.197 0 01-3.196-3.199 3.197 3.197 0 013.196-3.199 3.197 3.197 0 013.196 3.199zm23.584 0a3.197 3.197 0 11-6.393 0 3.197 3.197 0 116.393 0zm23.561 0a3.197 3.197 0 11-6.393 0 3.197 3.197 0 116.393 0zm23.561 0a3.197 3.197 0 11-6.393 0 3.197 3.197 0 116.393 0zm23.584 0a3.197 3.197 0 11-6.393 0 3.197 3.197 0 116.393 0zm23.561 0a3.197 3.197 0 11-6.393 0 3.197 3.197 0 116.393 0zm23.561 0a3.198 3.198 0 01-3.196 3.199 3.198 3.198 0 010-6.398 3.198 3.198 0 013.196 3.199zm23.561 0a3.197 3.197 0 11-6.393 0 3.197 3.197 0 116.393 0zm23.583 0a3.197 3.197 0 01-3.196 3.199 3.197 3.197 0 01-3.196-3.199 3.197 3.197 0 013.196-3.199 3.197 3.197 0 013.196 3.199zm23.562 0a3.197 3.197 0 11-6.393 0 3.197 3.197 0 116.393 0zm23.561 0a3.197 3.197 0 11-6.393 0 3.197 3.197 0 116.393 0zm23.561 0a3.197 3.197 0 11-6.393 0 3.197 3.197 0 116.393 0zm23.584 0a3.197 3.197 0 11-6.393 0 3.197 3.197 0 116.393 0zm23.561 0a3.197 3.197 0 11-6.393 0 3.197 3.197 0 116.393 0zm23.561 0a3.197 3.197 0 11-6.393 0 3.197 3.197 0 116.393 0zm23.561 0a3.197 3.197 0 11-6.393 0 3.197 3.197 0 116.393 0zm23.583 0a3.197 3.197 0 11-6.393 0 3.197 3.197 0 116.393 0zm23.562 0a3.197 3.197 0 11-6.393 0 3.197 3.197 0 116.393 0zm23.561 0a3.197 3.197 0 11-6.393 0 3.197 3.197 0 116.393 0zm23.583 0a3.197 3.197 0 11-6.393 0 3.197 3.197 0 116.393 0zm23.561 0a3.197 3.197 0 11-6.393 0 3.197 3.197 0 116.393 0zm23.561 0a3.197 3.197 0 01-3.196 3.199 3.197 3.197 0 01-3.196-3.199 3.197 3.197 0 013.196-3.199 3.197 3.197 0 013.196 3.199zm23.562 0a3.197 3.197 0 11-6.393 0 3.197 3.197 0 116.393 0zm23.583 0a3.197 3.197 0 11-6.393 0 3.197 3.197 0 116.393 0zm23.561 0a3.197 3.197 0 11-6.393 0 3.197 3.197 0 116.393 0zm23.561 0a3.197 3.197 0 11-6.393 0 3.197 3.197 0 116.393 0zm23.561 0a3.197 3.197 0 11-6.393 0 3.197 3.197 0 116.393 0zm23.584 0a3.196 3.196 0 11-6.39 0 3.196 3.196 0 116.39 0zM6.893 381.653a3.198 3.198 0 01-3.197 3.199A3.198 3.198 0 01.5 381.653a3.197 3.197 0 116.393 0zm23.561 0a3.198 3.198 0 01-3.197 3.199 3.198 3.198 0 01-3.196-3.199 3.197 3.197 0 116.393 0zm23.583 0a3.198 3.198 0 01-3.196 3.199 3.198 3.198 0 01-3.196-3.199 3.197 3.197 0 116.392 0zm23.562 0a3.198 3.198 0 01-3.197 3.199 3.198 3.198 0 01-3.196-3.199 3.197 3.197 0 116.393 0zm23.561 0a3.198 3.198 0 01-3.197 3.199 3.198 3.198 0 01-3.196-3.199 3.197 3.197 0 116.393 0zm23.583 0a3.197 3.197 0 11-3.196-3.198 3.197 3.197 0 013.196 3.198zm23.561 0a3.197 3.197 0 11-3.196-3.198 3.197 3.197 0 013.196 3.198zm23.562 0a3.197 3.197 0 11-6.393 0 3.197 3.197 0 116.393 0zm23.561 0a3.197 3.197 0 11-6.393 0 3.197 3.197 0 116.393 0zm23.583 0a3.197 3.197 0 11-3.196-3.198 3.197 3.197 0 013.196 3.198zm23.561 0a3.197 3.197 0 11-3.196-3.198 3.197 3.197 0 013.196 3.198zm23.561 0a3.197 3.197 0 01-3.196 3.199 3.197 3.197 0 01-3.196-3.199 3.197 3.197 0 116.392 0zm23.562 0a3.197 3.197 0 11-6.393 0 3.197 3.197 0 116.393 0zm23.583 0a3.197 3.197 0 11-6.393 0 3.197 3.197 0 116.393 0zm23.561 0a3.197 3.197 0 11-3.196-3.198 3.197 3.197 0 013.196 3.198zm23.561 0a3.197 3.197 0 11-3.196-3.198 3.197 3.197 0 013.196 3.198z" stroke="#AFAFAF"></path>
    <path class="red-dot" d="M383.96 381.653a3.197 3.197 0 01-3.196 3.199 3.197 3.197 0 01-3.196-3.199 3.197 3.197 0 116.392 0z" fill="#C91226" stroke="#C91226"></path>
    <path d="M407.544 381.653a3.197 3.197 0 11-3.196-3.198 3.197 3.197 0 013.196 3.198zm23.561 0a3.197 3.197 0 11-3.196-3.198 3.197 3.197 0 013.196 3.198zm23.561 0a3.197 3.197 0 11-3.196-3.198 3.197 3.197 0 013.196 3.198zm23.584 0a3.197 3.197 0 11-6.393 0 3.197 3.197 0 116.393 0zm23.561 0a3.197 3.197 0 11-6.393 0 3.197 3.197 0 116.393 0zm23.561 0a3.197 3.197 0 11-3.196-3.198 3.197 3.197 0 013.196 3.198zm23.561 0a3.197 3.197 0 11-3.196-3.198 3.197 3.197 0 013.196 3.198zm23.583 0a3.197 3.197 0 01-3.196 3.199 3.197 3.197 0 01-3.196-3.199 3.197 3.197 0 116.392 0zm23.562 0a3.197 3.197 0 11-6.393 0 3.197 3.197 0 116.393 0zm23.561 0a3.197 3.197 0 11-6.393 0 3.197 3.197 0 116.393 0zm23.561 0a3.197 3.197 0 11-6.393 0 3.197 3.197 0 116.393 0zm23.584 0a3.197 3.197 0 11-6.393 0 3.197 3.197 0 116.393 0zm23.561 0a3.197 3.197 0 11-6.393 0 3.197 3.197 0 116.393 0zm23.561 0a3.197 3.197 0 11-6.393 0 3.197 3.197 0 116.393 0zm23.561 0a3.197 3.197 0 11-6.393 0 3.197 3.197 0 116.393 0zm23.583 0a3.197 3.197 0 11-3.196-3.198 3.197 3.197 0 013.196 3.198zm23.562 0a3.197 3.197 0 11-6.393 0 3.197 3.197 0 116.393 0zm23.561 0a3.197 3.197 0 11-6.393 0 3.197 3.197 0 116.393 0zm23.583 0a3.197 3.197 0 11-3.196-3.198 3.197 3.197 0 013.196 3.198zm23.561 0a3.197 3.197 0 11-3.196-3.198 3.197 3.197 0 013.196 3.198zm23.561 0a3.197 3.197 0 01-3.196 3.199 3.197 3.197 0 01-3.196-3.199 3.197 3.197 0 116.392 0zm23.562 0a3.197 3.197 0 11-6.393 0 3.197 3.197 0 116.393 0zm23.583 0a3.197 3.197 0 11-3.196-3.198 3.197 3.197 0 013.196 3.198zm23.561 0a3.197 3.197 0 11-3.196-3.198 3.197 3.197 0 013.196 3.198zm23.561 0a3.197 3.197 0 11-6.393 0 3.197 3.197 0 116.393 0zm23.561 0a3.197 3.197 0 11-6.393 0 3.197 3.197 0 116.393 0zm23.584 0a3.196 3.196 0 11-6.39 0 3.195 3.195 0 116.39 0zM6.893 405.292a3.198 3.198 0 01-3.197 3.199A3.198 3.198 0 01.5 405.292a3.197 3.197 0 116.393 0zm23.561 0a3.198 3.198 0 01-3.197 3.199 3.198 3.198 0 01-3.196-3.199 3.197 3.197 0 116.393 0zm23.583 0a3.198 3.198 0 01-3.196 3.199 3.198 3.198 0 01-3.196-3.199 3.197 3.197 0 116.392 0zm23.562 0a3.198 3.198 0 01-3.197 3.199 3.198 3.198 0 01-3.196-3.199 3.197 3.197 0 116.393 0zm23.561 0a3.198 3.198 0 01-3.197 3.199 3.198 3.198 0 01-3.196-3.199 3.197 3.197 0 116.393 0zm23.583 0a3.197 3.197 0 11-3.196-3.198 3.197 3.197 0 013.196 3.198zm23.561 0a3.197 3.197 0 11-3.196-3.198 3.197 3.197 0 013.196 3.198zm23.562 0a3.197 3.197 0 11-6.393 0 3.197 3.197 0 116.393 0zm23.561 0a3.197 3.197 0 11-6.393 0 3.197 3.197 0 116.393 0zm23.583 0a3.197 3.197 0 11-3.196-3.198 3.197 3.197 0 013.196 3.198zm23.561 0a3.197 3.197 0 11-3.196-3.198 3.197 3.197 0 013.196 3.198zm23.561 0a3.197 3.197 0 01-3.196 3.199 3.197 3.197 0 01-3.196-3.199 3.197 3.197 0 116.392 0zm23.562 0a3.197 3.197 0 11-6.393 0 3.197 3.197 0 116.393 0zm23.583 0a3.197 3.197 0 11-6.393 0 3.197 3.197 0 116.393 0zm23.561 0a3.197 3.197 0 11-3.196-3.198 3.197 3.197 0 013.196 3.198zm23.561 0a3.197 3.197 0 11-3.196-3.198 3.197 3.197 0 013.196 3.198zm23.561 0a3.197 3.197 0 01-3.196 3.199 3.197 3.197 0 01-3.196-3.199 3.197 3.197 0 116.392 0zm23.584 0a3.197 3.197 0 11-3.196-3.198 3.197 3.197 0 013.196 3.198zm23.561 0a3.197 3.197 0 11-3.196-3.198 3.197 3.197 0 013.196 3.198zm23.561 0a3.197 3.197 0 11-3.196-3.198 3.197 3.197 0 013.196 3.198zm23.584 0a3.197 3.197 0 11-6.393 0 3.197 3.197 0 116.393 0zm23.561 0a3.197 3.197 0 11-6.393 0 3.197 3.197 0 116.393 0zm23.561 0a3.197 3.197 0 11-3.196-3.198 3.197 3.197 0 013.196 3.198zm23.561 0a3.197 3.197 0 11-3.196-3.198 3.197 3.197 0 013.196 3.198zm23.583 0a3.197 3.197 0 01-3.196 3.199 3.197 3.197 0 01-3.196-3.199 3.197 3.197 0 116.392 0zm23.562 0a3.197 3.197 0 11-6.393 0 3.197 3.197 0 116.393 0zm23.561 0a3.197 3.197 0 11-6.393 0 3.197 3.197 0 116.393 0zm23.561 0a3.197 3.197 0 11-6.393 0 3.197 3.197 0 116.393 0zm23.584 0a3.197 3.197 0 11-6.393 0 3.197 3.197 0 116.393 0zm23.561 0a3.197 3.197 0 11-6.393 0 3.197 3.197 0 116.393 0zm23.561 0a3.197 3.197 0 11-6.393 0 3.197 3.197 0 116.393 0z" stroke="#AFAFAF"></path>
    <path class="red-dot" d="M737.467 405.292a3.197 3.197 0 11-6.393 0 3.197 3.197 0 116.393 0z" fill="#C91226" stroke="#C91226"></path>
    <path d="M761.05 405.292a3.197 3.197 0 11-3.196-3.198 3.197 3.197 0 013.196 3.198zm23.562 0a3.197 3.197 0 11-6.393 0 3.197 3.197 0 116.393 0zm23.561 0a3.197 3.197 0 11-6.393 0 3.197 3.197 0 116.393 0zm23.583 0a3.197 3.197 0 11-3.196-3.198 3.197 3.197 0 013.196 3.198zm23.561 0a3.197 3.197 0 11-3.196-3.198 3.197 3.197 0 013.196 3.198zm23.561 0a3.197 3.197 0 01-3.196 3.199 3.197 3.197 0 01-3.196-3.199 3.197 3.197 0 116.392 0zm23.562 0a3.197 3.197 0 11-6.393 0 3.197 3.197 0 116.393 0zm23.583 0a3.197 3.197 0 11-3.196-3.198 3.197 3.197 0 013.196 3.198zm23.561 0a3.197 3.197 0 11-3.196-3.198 3.197 3.197 0 013.196 3.198zm23.561 0a3.197 3.197 0 11-6.393 0 3.197 3.197 0 116.393 0zm23.561 0a3.197 3.197 0 11-6.393 0 3.197 3.197 0 116.393 0zm23.584 0a3.196 3.196 0 11-6.39 0 3.195 3.195 0 116.39 0zM6.893 428.909a3.198 3.198 0 01-3.197 3.199A3.198 3.198 0 01.5 428.909a3.198 3.198 0 013.196-3.199 3.198 3.198 0 013.197 3.199zm23.561 0a3.198 3.198 0 01-3.197 3.199 3.198 3.198 0 01-3.196-3.199 3.198 3.198 0 013.197-3.199 3.198 3.198 0 013.196 3.199zm23.583 0a3.198 3.198 0 01-3.196 3.199 3.198 3.198 0 01-3.196-3.199 3.198 3.198 0 013.196-3.199 3.198 3.198 0 013.196 3.199zm23.562 0a3.198 3.198 0 01-3.197 3.199 3.198 3.198 0 01-3.196-3.199 3.198 3.198 0 013.196-3.199 3.198 3.198 0 013.197 3.199z" stroke="#AFAFAF"></path>
    <path class="red-dot" d="M101.16 428.909a3.198 3.198 0 01-3.197 3.199 3.198 3.198 0 01-3.196-3.199 3.198 3.198 0 013.196-3.199 3.198 3.198 0 013.197 3.199z" fill="#C91226" stroke="#C91226"></path>
    <path d="M124.743 428.909a3.197 3.197 0 11-6.393 0 3.197 3.197 0 116.393 0zm23.561 0a3.197 3.197 0 11-6.393 0 3.197 3.197 0 116.393 0zm23.562 0a3.197 3.197 0 11-6.393 0 3.197 3.197 0 116.393 0zm23.561 0a3.197 3.197 0 11-6.393 0 3.197 3.197 0 116.393 0zm23.583 0a3.197 3.197 0 11-6.393 0 3.197 3.197 0 116.393 0zm23.561 0a3.197 3.197 0 11-6.393 0 3.197 3.197 0 116.393 0zm23.561 0a3.197 3.197 0 01-3.196 3.199 3.197 3.197 0 01-3.196-3.199 3.197 3.197 0 013.196-3.199 3.197 3.197 0 013.196 3.199zm23.562 0a3.197 3.197 0 11-6.393 0 3.197 3.197 0 116.393 0zm23.583 0a3.197 3.197 0 11-6.393 0 3.197 3.197 0 116.393 0z" stroke="#AFAFAF"></path>
    <path d="M336.838 428.909a3.197 3.197 0 11-6.393 0 3.197 3.197 0 116.393 0z" fill="#C91226" stroke="#C91226"></path>
    <path d="M360.399 428.909a3.197 3.197 0 11-6.393 0 3.197 3.197 0 116.393 0zm23.561 0a3.197 3.197 0 01-3.196 3.199 3.197 3.197 0 01-3.196-3.199 3.197 3.197 0 013.196-3.199 3.197 3.197 0 013.196 3.199zm23.584 0a3.197 3.197 0 11-6.393 0 3.197 3.197 0 116.393 0zm23.561 0a3.197 3.197 0 11-6.393 0 3.197 3.197 0 116.393 0zm23.561 0a3.197 3.197 0 11-6.393 0 3.197 3.197 0 116.393 0zm23.584 0a3.197 3.197 0 11-6.393 0 3.197 3.197 0 116.393 0zm23.561 0a3.197 3.197 0 11-6.393 0 3.197 3.197 0 116.393 0zm23.561 0a3.197 3.197 0 11-6.393 0 3.197 3.197 0 116.393 0zm23.561 0a3.197 3.197 0 11-6.393 0 3.197 3.197 0 116.393 0zm23.583 0a3.197 3.197 0 01-3.196 3.199 3.197 3.197 0 01-3.196-3.199 3.197 3.197 0 013.196-3.199 3.197 3.197 0 013.196 3.199zm23.562 0a3.197 3.197 0 11-6.393 0 3.197 3.197 0 116.393 0zm23.561 0a3.197 3.197 0 11-6.393 0 3.197 3.197 0 116.393 0zm23.561 0a3.197 3.197 0 11-6.393 0 3.197 3.197 0 116.393 0zm23.584 0a3.197 3.197 0 11-6.393 0 3.197 3.197 0 116.393 0zm23.561 0a3.197 3.197 0 11-6.393 0 3.197 3.197 0 116.393 0zm23.561 0a3.197 3.197 0 11-6.393 0 3.197 3.197 0 116.393 0zm23.561 0a3.197 3.197 0 11-6.393 0 3.197 3.197 0 116.393 0zm23.583 0a3.197 3.197 0 11-6.393 0 3.197 3.197 0 116.393 0zm23.562 0a3.197 3.197 0 11-6.393 0 3.197 3.197 0 116.393 0zm23.561 0a3.197 3.197 0 11-6.393 0 3.197 3.197 0 116.393 0zm23.583 0a3.197 3.197 0 11-6.393 0 3.197 3.197 0 116.393 0zm23.561 0a3.197 3.197 0 11-6.393 0 3.197 3.197 0 116.393 0zm23.561 0a3.197 3.197 0 01-3.196 3.199 3.197 3.197 0 01-3.196-3.199 3.197 3.197 0 013.196-3.199 3.197 3.197 0 013.196 3.199zm23.562 0a3.197 3.197 0 11-6.393 0 3.197 3.197 0 116.393 0zm23.583 0a3.197 3.197 0 11-6.393 0 3.197 3.197 0 116.393 0zm23.561 0a3.197 3.197 0 11-6.393 0 3.197 3.197 0 116.393 0zm23.561 0a3.197 3.197 0 11-6.393 0 3.197 3.197 0 116.393 0zm23.561 0a3.197 3.197 0 11-6.393 0 3.197 3.197 0 116.393 0zm23.584 0a3.196 3.196 0 11-6.39 0 3.196 3.196 0 116.39 0zM54.037 452.525a3.198 3.198 0 01-3.196 3.199 3.198 3.198 0 01-3.196-3.199 3.197 3.197 0 116.392 0zm23.562 0a3.198 3.198 0 01-3.197 3.199 3.198 3.198 0 01-3.196-3.199 3.197 3.197 0 116.393 0zm23.561 0a3.198 3.198 0 01-3.197 3.199 3.198 3.198 0 01-3.196-3.199 3.197 3.197 0 116.393 0zm23.583 0a3.197 3.197 0 11-3.196-3.198 3.197 3.197 0 013.196 3.198zm23.561 0a3.197 3.197 0 11-3.196-3.198 3.197 3.197 0 013.196 3.198zm23.562 0a3.197 3.197 0 11-6.393 0 3.197 3.197 0 116.393 0zm23.561 0a3.197 3.197 0 11-6.393 0 3.197 3.197 0 116.393 0zm23.583 0a3.197 3.197 0 11-3.196-3.198 3.197 3.197 0 013.196 3.198z" stroke="#AFAFAF"></path>
    <path d="M242.571 452.525a3.197 3.197 0 11-3.196-3.198 3.197 3.197 0 013.196 3.198z" fill="#C91226" stroke="#C91226"></path>
    <path d="M266.132 452.525a3.197 3.197 0 01-3.196 3.199 3.197 3.197 0 01-3.196-3.199 3.197 3.197 0 116.392 0zm23.562 0a3.197 3.197 0 11-6.393 0 3.197 3.197 0 116.393 0zm23.583 0a3.197 3.197 0 11-6.393 0 3.197 3.197 0 116.393 0zm23.561 0a3.197 3.197 0 11-3.196-3.198 3.197 3.197 0 013.196 3.198zm23.561 0a3.197 3.197 0 11-3.196-3.198 3.197 3.197 0 013.196 3.198zm23.561 0a3.197 3.197 0 01-3.196 3.199 3.197 3.197 0 01-3.196-3.199 3.197 3.197 0 116.392 0zm23.584 0a3.197 3.197 0 11-3.196-3.198 3.197 3.197 0 013.196 3.198zm23.561 0a3.197 3.197 0 11-3.196-3.198 3.197 3.197 0 013.196 3.198zm23.561 0a3.197 3.197 0 11-3.196-3.198 3.197 3.197 0 013.196 3.198z" stroke="#AFAFAF"></path>
    <path d="M478.25 452.525a3.197 3.197 0 11-6.393 0 3.197 3.197 0 116.393 0z" fill="#C91226" stroke="#C91226"></path>
    <path d="M501.811 452.525a3.197 3.197 0 11-6.393 0 3.197 3.197 0 116.393 0zm23.561 0a3.198 3.198 0 01-3.196 3.199 3.198 3.198 0 010-6.397 3.197 3.197 0 013.196 3.198zm23.561 0a3.197 3.197 0 11-3.196-3.198 3.197 3.197 0 013.196 3.198zm23.583 0a3.197 3.197 0 01-3.196 3.199 3.197 3.197 0 01-3.196-3.199 3.197 3.197 0 116.392 0zm23.562 0a3.197 3.197 0 11-6.393 0 3.197 3.197 0 116.393 0zm23.561 0a3.197 3.197 0 11-6.393 0 3.197 3.197 0 116.393 0zm23.561 0a3.197 3.197 0 11-6.393 0 3.197 3.197 0 116.393 0zm23.584 0a3.197 3.197 0 11-6.393 0 3.197 3.197 0 116.393 0zm23.561 0a3.197 3.197 0 11-6.393 0 3.197 3.197 0 116.393 0zm23.561 0a3.197 3.197 0 11-6.393 0 3.197 3.197 0 116.393 0zm23.561 0a3.197 3.197 0 11-6.393 0 3.197 3.197 0 116.393 0zm23.583 0a3.197 3.197 0 11-3.196-3.198 3.197 3.197 0 013.196 3.198zm23.562 0a3.197 3.197 0 11-6.393 0 3.197 3.197 0 116.393 0zm23.561 0a3.197 3.197 0 11-6.393 0 3.197 3.197 0 116.393 0zm23.583 0a3.197 3.197 0 11-3.196-3.198 3.197 3.197 0 013.196 3.198zm23.561 0a3.197 3.197 0 11-3.196-3.198 3.197 3.197 0 013.196 3.198zm23.561 0a3.197 3.197 0 01-3.196 3.199 3.197 3.197 0 01-3.196-3.199 3.197 3.197 0 116.392 0zm23.562 0a3.197 3.197 0 11-6.393 0 3.197 3.197 0 116.393 0zm23.583 0a3.197 3.197 0 11-3.196-3.198 3.197 3.197 0 013.196 3.198zm23.561 0a3.197 3.197 0 11-3.196-3.198 3.197 3.197 0 013.196 3.198zm23.561 0a3.197 3.197 0 11-6.393 0 3.197 3.197 0 116.393 0zm23.561 0a3.197 3.197 0 11-6.393 0 3.197 3.197 0 116.393 0zm23.584 0a3.196 3.196 0 11-6.39 0 3.195 3.195 0 116.39 0zM54.037 476.142a3.198 3.198 0 01-3.196 3.199 3.198 3.198 0 01-3.196-3.199 3.198 3.198 0 013.196-3.199 3.198 3.198 0 013.196 3.199zm23.562 0a3.198 3.198 0 01-3.197 3.199 3.198 3.198 0 01-3.196-3.199 3.198 3.198 0 013.196-3.199 3.198 3.198 0 013.197 3.199zm23.561 0a3.198 3.198 0 01-3.197 3.199 3.198 3.198 0 01-3.196-3.199 3.198 3.198 0 013.196-3.199 3.198 3.198 0 013.197 3.199zm23.583 0a3.197 3.197 0 11-6.393 0 3.197 3.197 0 116.393 0zm23.561 0a3.197 3.197 0 11-6.393 0 3.197 3.197 0 116.393 0zm23.562 0a3.197 3.197 0 11-6.393 0 3.197 3.197 0 116.393 0zm23.561 0a3.197 3.197 0 11-6.393 0 3.197 3.197 0 116.393 0zm23.583 0a3.197 3.197 0 11-6.393 0 3.197 3.197 0 116.393 0zm23.561 0a3.197 3.197 0 11-6.393 0 3.197 3.197 0 116.393 0zm23.561 0a3.197 3.197 0 01-3.196 3.199 3.197 3.197 0 01-3.196-3.199 3.197 3.197 0 013.196-3.199 3.197 3.197 0 013.196 3.199zm23.562 0a3.197 3.197 0 11-6.393 0 3.197 3.197 0 116.393 0zm23.583 0a3.197 3.197 0 11-6.393 0 3.197 3.197 0 116.393 0zm23.561 0a3.197 3.197 0 11-6.393 0 3.197 3.197 0 116.393 0zm23.561 0a3.197 3.197 0 11-6.393 0 3.197 3.197 0 116.393 0zm23.561 0a3.197 3.197 0 01-3.196 3.199 3.197 3.197 0 01-3.196-3.199 3.197 3.197 0 013.196-3.199 3.197 3.197 0 013.196 3.199zm23.584 0a3.197 3.197 0 11-6.393 0 3.197 3.197 0 116.393 0zm23.561 0a3.197 3.197 0 11-6.393 0 3.197 3.197 0 116.393 0zm23.561 0a3.197 3.197 0 11-6.393 0 3.197 3.197 0 116.393 0zm23.584 0a3.197 3.197 0 11-6.393 0 3.197 3.197 0 116.393 0z" stroke="#AFAFAF"></path>
    <path d="M501.811 476.142a3.197 3.197 0 11-6.393 0 3.197 3.197 0 116.393 0z" fill="#C91226" stroke="#C91226"></path>
    <path d="M525.372 476.142a3.197 3.197 0 11-6.393 0 3.197 3.197 0 116.393 0zm23.561 0a3.197 3.197 0 11-6.393 0 3.197 3.197 0 116.393 0zm23.583 0a3.197 3.197 0 01-3.196 3.199 3.197 3.197 0 01-3.196-3.199 3.197 3.197 0 013.196-3.199 3.197 3.197 0 013.196 3.199zm23.562 0a3.197 3.197 0 11-6.393 0 3.197 3.197 0 116.393 0zm23.561 0a3.197 3.197 0 11-6.393 0 3.197 3.197 0 116.393 0zm23.561 0a3.197 3.197 0 11-6.393 0 3.197 3.197 0 116.393 0zm23.584 0a3.197 3.197 0 11-6.393 0 3.197 3.197 0 116.393 0zm23.561 0a3.197 3.197 0 11-6.393 0 3.197 3.197 0 116.393 0zm23.561 0a3.197 3.197 0 11-6.393 0 3.197 3.197 0 116.393 0zm23.561 0a3.197 3.197 0 11-6.393 0 3.197 3.197 0 116.393 0zm23.583 0a3.197 3.197 0 11-6.393 0 3.197 3.197 0 116.393 0zm23.562 0a3.197 3.197 0 11-6.393 0 3.197 3.197 0 116.393 0zm23.561 0a3.197 3.197 0 11-6.393 0 3.197 3.197 0 116.393 0zm23.583 0a3.197 3.197 0 11-6.393 0 3.197 3.197 0 116.393 0zm23.561 0a3.197 3.197 0 11-6.393 0 3.197 3.197 0 116.393 0zm23.561 0a3.197 3.197 0 01-3.196 3.199 3.197 3.197 0 01-3.196-3.199 3.197 3.197 0 013.196-3.199 3.197 3.197 0 013.196 3.199zm23.562 0a3.197 3.197 0 11-6.393 0 3.197 3.197 0 116.393 0zm23.583 0a3.197 3.197 0 11-6.393 0 3.197 3.197 0 116.393 0zm23.561 0a3.197 3.197 0 11-6.393 0 3.197 3.197 0 116.393 0zm23.561 0a3.197 3.197 0 11-6.393 0 3.197 3.197 0 116.393 0zm23.561 0a3.197 3.197 0 11-6.393 0 3.197 3.197 0 116.393 0zm23.584 0a3.196 3.196 0 11-6.39 0 3.196 3.196 0 116.39 0zM6.893 499.781a3.198 3.198 0 01-3.197 3.199A3.198 3.198 0 01.5 499.781a3.198 3.198 0 013.196-3.199 3.198 3.198 0 013.197 3.199zm23.561 0a3.198 3.198 0 01-3.197 3.199 3.198 3.198 0 01-3.196-3.199 3.198 3.198 0 013.197-3.199 3.198 3.198 0 013.196 3.199zm23.583 0a3.198 3.198 0 01-3.196 3.199 3.198 3.198 0 01-3.196-3.199 3.198 3.198 0 013.196-3.199 3.198 3.198 0 013.196 3.199zm23.562 0a3.198 3.198 0 01-3.197 3.199 3.198 3.198 0 01-3.196-3.199 3.198 3.198 0 013.196-3.199 3.198 3.198 0 013.197 3.199zm23.561 0a3.198 3.198 0 01-3.197 3.199 3.198 3.198 0 01-3.196-3.199 3.198 3.198 0 013.196-3.199 3.198 3.198 0 013.197 3.199zm23.583 0a3.197 3.197 0 11-6.393 0 3.197 3.197 0 116.393 0zm23.561 0a3.197 3.197 0 11-6.393 0 3.197 3.197 0 116.393 0zm23.562 0a3.197 3.197 0 11-6.393 0 3.197 3.197 0 116.393 0zm23.561 0a3.197 3.197 0 11-6.393 0 3.197 3.197 0 116.393 0zm23.583 0a3.197 3.197 0 11-6.393 0 3.197 3.197 0 116.393 0zm23.561 0a3.197 3.197 0 11-6.393 0 3.197 3.197 0 116.393 0zm23.561 0a3.197 3.197 0 01-3.196 3.199 3.197 3.197 0 01-3.196-3.199 3.197 3.197 0 013.196-3.199 3.197 3.197 0 013.196 3.199zm23.562 0a3.197 3.197 0 11-6.393 0 3.197 3.197 0 116.393 0zm23.583 0a3.197 3.197 0 11-6.393 0 3.197 3.197 0 116.393 0zm23.561 0a3.197 3.197 0 11-6.393 0 3.197 3.197 0 116.393 0zm23.561 0a3.197 3.197 0 11-6.393 0 3.197 3.197 0 116.393 0zm23.561 0a3.197 3.197 0 01-3.196 3.199 3.197 3.197 0 01-3.196-3.199 3.197 3.197 0 013.196-3.199 3.197 3.197 0 013.196 3.199zm23.584 0a3.197 3.197 0 11-6.393 0 3.197 3.197 0 116.393 0zm23.561 0a3.197 3.197 0 11-6.393 0 3.197 3.197 0 116.393 0zm23.561 0a3.197 3.197 0 11-6.393 0 3.197 3.197 0 116.393 0zm23.584 0a3.197 3.197 0 11-6.393 0 3.197 3.197 0 116.393 0zm23.561 0a3.197 3.197 0 11-6.393 0 3.197 3.197 0 116.393 0zm23.561 0a3.197 3.197 0 11-6.393 0 3.197 3.197 0 116.393 0zm23.561 0a3.197 3.197 0 11-6.393 0 3.197 3.197 0 116.393 0zm23.583 0a3.197 3.197 0 01-3.196 3.199 3.197 3.197 0 01-3.196-3.199 3.197 3.197 0 013.196-3.199 3.197 3.197 0 013.196 3.199zm23.562 0a3.197 3.197 0 11-6.393 0 3.197 3.197 0 116.393 0zm23.561 0a3.197 3.197 0 11-6.393 0 3.197 3.197 0 116.393 0zm23.561 0a3.197 3.197 0 11-6.393 0 3.197 3.197 0 116.393 0zm23.584 0a3.197 3.197 0 11-6.393 0 3.197 3.197 0 116.393 0zm23.561 0a3.197 3.197 0 11-6.393 0 3.197 3.197 0 116.393 0zm23.561 0a3.197 3.197 0 11-6.393 0 3.197 3.197 0 116.393 0zm23.561 0a3.197 3.197 0 11-6.393 0 3.197 3.197 0 116.393 0zm23.583 0a3.197 3.197 0 11-6.393 0 3.197 3.197 0 116.393 0zm23.562 0a3.197 3.197 0 11-6.393 0 3.197 3.197 0 116.393 0zm23.561 0a3.197 3.197 0 11-6.393 0 3.197 3.197 0 116.393 0zm23.583 0a3.197 3.197 0 11-6.393 0 3.197 3.197 0 116.393 0zm23.561 0a3.197 3.197 0 11-6.393 0 3.197 3.197 0 116.393 0zm23.561 0a3.197 3.197 0 01-3.196 3.199 3.197 3.197 0 01-3.196-3.199 3.197 3.197 0 013.196-3.199 3.197 3.197 0 013.196 3.199zm23.562 0a3.197 3.197 0 11-6.393 0 3.197 3.197 0 116.393 0zm23.583 0a3.197 3.197 0 11-6.393 0 3.197 3.197 0 116.393 0zm23.561 0a3.197 3.197 0 11-6.393 0 3.197 3.197 0 116.393 0zm23.561 0a3.197 3.197 0 11-6.393 0 3.197 3.197 0 116.393 0zm23.561 0a3.197 3.197 0 11-6.393 0 3.197 3.197 0 116.393 0zm23.584 0a3.196 3.196 0 11-6.39 0 3.196 3.196 0 116.39 0zM6.893 523.398a3.197 3.197 0 11-6.393 0 3.198 3.198 0 013.196-3.199 3.198 3.198 0 013.197 3.199zm23.561 0a3.197 3.197 0 11-6.393 0 3.198 3.198 0 013.197-3.199 3.198 3.198 0 013.196 3.199zm23.583 0a3.197 3.197 0 11-6.392 0 3.198 3.198 0 013.196-3.199 3.198 3.198 0 013.196 3.199zm23.562 0a3.197 3.197 0 11-6.393 0 3.198 3.198 0 013.196-3.199 3.198 3.198 0 013.197 3.199zm23.561 0a3.197 3.197 0 11-6.393 0 3.198 3.198 0 013.196-3.199 3.198 3.198 0 013.197 3.199zm23.583 0a3.197 3.197 0 11-6.393 0 3.197 3.197 0 116.393 0zm23.561 0a3.197 3.197 0 11-6.393 0 3.197 3.197 0 116.393 0zm23.562 0a3.197 3.197 0 11-3.197-3.199 3.198 3.198 0 013.197 3.199zm23.561 0a3.197 3.197 0 11-3.197-3.199 3.198 3.198 0 013.197 3.199zm23.583 0a3.197 3.197 0 11-6.393 0 3.197 3.197 0 116.393 0zm23.561 0a3.197 3.197 0 11-6.393 0 3.197 3.197 0 116.393 0zm23.561 0a3.197 3.197 0 11-6.392 0 3.197 3.197 0 013.196-3.199 3.197 3.197 0 013.196 3.199zm23.562 0a3.197 3.197 0 11-3.197-3.199 3.198 3.198 0 013.197 3.199zm23.583 0a3.197 3.197 0 11-3.197-3.199 3.198 3.198 0 013.197 3.199zm23.561 0a3.197 3.197 0 11-6.393 0 3.197 3.197 0 116.393 0zm23.561 0a3.197 3.197 0 11-6.393 0 3.197 3.197 0 116.393 0zm23.561 0a3.197 3.197 0 11-6.392 0 3.197 3.197 0 013.196-3.199 3.197 3.197 0 013.196 3.199zm23.584 0a3.197 3.197 0 11-6.393 0 3.197 3.197 0 116.393 0zm23.561 0a3.197 3.197 0 11-6.393 0 3.197 3.197 0 116.393 0zm23.561 0a3.197 3.197 0 11-6.393 0 3.197 3.197 0 116.393 0zm23.584 0a3.197 3.197 0 11-3.197-3.199 3.198 3.198 0 013.197 3.199zm23.561 0a3.197 3.197 0 11-3.197-3.199 3.198 3.198 0 013.197 3.199zm23.561 0a3.197 3.197 0 11-6.393 0 3.197 3.197 0 116.393 0zm23.561 0a3.197 3.197 0 11-6.393 0 3.197 3.197 0 116.393 0zm23.583 0a3.197 3.197 0 11-6.392 0 3.197 3.197 0 013.196-3.199 3.197 3.197 0 013.196 3.199zm23.562 0a3.197 3.197 0 11-3.197-3.199 3.198 3.198 0 013.197 3.199zm23.561 0a3.197 3.197 0 11-3.197-3.199 3.198 3.198 0 013.197 3.199zm23.561 0a3.197 3.197 0 11-3.197-3.199 3.198 3.198 0 013.197 3.199zm23.584 0a3.197 3.197 0 11-3.197-3.199 3.198 3.198 0 013.197 3.199zm23.561 0a3.197 3.197 0 11-3.197-3.199 3.198 3.198 0 013.197 3.199zm23.561 0a3.197 3.197 0 11-3.197-3.199 3.198 3.198 0 013.197 3.199zm23.561 0a3.197 3.197 0 11-3.197-3.199 3.198 3.198 0 013.197 3.199zm23.583 0a3.197 3.197 0 11-6.393 0 3.197 3.197 0 116.393 0zm23.562 0a3.197 3.197 0 11-3.197-3.199 3.198 3.198 0 013.197 3.199zm23.561 0a3.197 3.197 0 11-3.197-3.199 3.198 3.198 0 013.197 3.199zm23.583 0a3.197 3.197 0 11-6.393 0 3.197 3.197 0 116.393 0zm23.561 0a3.197 3.197 0 11-6.393 0 3.197 3.197 0 116.393 0zm23.561 0a3.197 3.197 0 11-6.392 0 3.197 3.197 0 013.196-3.199 3.197 3.197 0 013.196 3.199zm23.562 0a3.197 3.197 0 11-3.197-3.199 3.198 3.198 0 013.197 3.199zm23.583 0a3.197 3.197 0 11-6.393 0 3.197 3.197 0 116.393 0zm23.561 0a3.197 3.197 0 11-6.393 0 3.197 3.197 0 116.393 0zm23.561 0a3.197 3.197 0 11-3.197-3.199 3.198 3.198 0 013.197 3.199zm23.561 0a3.197 3.197 0 11-3.197-3.199 3.198 3.198 0 013.197 3.199zm23.584 0a3.195 3.195 0 11-6.39 0 3.196 3.196 0 116.39 0zM6.893 547.014a3.198 3.198 0 01-3.197 3.199A3.198 3.198 0 01.5 547.014a3.198 3.198 0 013.196-3.199 3.198 3.198 0 013.197 3.199zm23.561 0a3.198 3.198 0 01-3.197 3.199 3.198 3.198 0 01-3.196-3.199 3.198 3.198 0 013.197-3.199 3.198 3.198 0 013.196 3.199zm23.583 0a3.198 3.198 0 01-3.196 3.199 3.198 3.198 0 01-3.196-3.199 3.198 3.198 0 013.196-3.199 3.198 3.198 0 013.196 3.199zm23.562 0a3.198 3.198 0 01-3.197 3.199 3.198 3.198 0 01-3.196-3.199 3.198 3.198 0 013.196-3.199 3.198 3.198 0 013.197 3.199zm23.561 0a3.198 3.198 0 01-3.197 3.199 3.198 3.198 0 01-3.196-3.199 3.198 3.198 0 013.196-3.199 3.198 3.198 0 013.197 3.199zm23.583 0a3.197 3.197 0 11-6.393 0 3.197 3.197 0 116.393 0zm23.561 0a3.197 3.197 0 11-6.393 0 3.197 3.197 0 116.393 0zm23.562 0a3.197 3.197 0 11-6.393 0 3.197 3.197 0 116.393 0zm23.561 0a3.197 3.197 0 11-6.393 0 3.197 3.197 0 116.393 0zm23.583 0a3.197 3.197 0 11-6.393 0 3.197 3.197 0 116.393 0z" stroke="#AFAFAF"></path>
    <path d="M242.571 547.014a3.197 3.197 0 11-6.393 0 3.197 3.197 0 116.393 0z" fill="#C91226" stroke="#C91226"></path>
    <path d="M266.132 547.014a3.197 3.197 0 01-3.196 3.199 3.197 3.197 0 01-3.196-3.199 3.197 3.197 0 013.196-3.199 3.197 3.197 0 013.196 3.199zm23.562 0a3.197 3.197 0 11-6.393 0 3.197 3.197 0 116.393 0zm23.583 0a3.197 3.197 0 11-6.393 0 3.197 3.197 0 116.393 0zm23.561 0a3.197 3.197 0 11-6.393 0 3.197 3.197 0 116.393 0zm23.561 0a3.197 3.197 0 11-6.393 0 3.197 3.197 0 116.393 0zm23.561 0a3.197 3.197 0 01-3.196 3.199 3.197 3.197 0 01-3.196-3.199 3.197 3.197 0 013.196-3.199 3.197 3.197 0 013.196 3.199zm23.584 0a3.197 3.197 0 11-6.393 0 3.197 3.197 0 116.393 0zm23.561 0a3.197 3.197 0 11-6.393 0 3.197 3.197 0 116.393 0zm23.561 0a3.197 3.197 0 11-6.393 0 3.197 3.197 0 116.393 0zm23.584 0a3.197 3.197 0 11-6.393 0 3.197 3.197 0 116.393 0zm23.561 0a3.197 3.197 0 11-6.393 0 3.197 3.197 0 116.393 0zm23.561 0a3.197 3.197 0 11-6.393 0 3.197 3.197 0 116.393 0zm23.561 0a3.197 3.197 0 11-6.393 0 3.197 3.197 0 116.393 0zm23.583 0a3.197 3.197 0 01-3.196 3.199 3.197 3.197 0 01-3.196-3.199 3.197 3.197 0 013.196-3.199 3.197 3.197 0 013.196 3.199zm23.562 0a3.197 3.197 0 11-6.393 0 3.197 3.197 0 116.393 0zm23.561 0a3.197 3.197 0 11-6.393 0 3.197 3.197 0 116.393 0zm23.561 0a3.197 3.197 0 11-6.393 0 3.197 3.197 0 116.393 0zm23.584 0a3.197 3.197 0 11-6.393 0 3.197 3.197 0 116.393 0zm23.561 0a3.197 3.197 0 11-6.393 0 3.197 3.197 0 116.393 0zm23.561 0a3.197 3.197 0 11-6.393 0 3.197 3.197 0 116.393 0zm23.561 0a3.197 3.197 0 11-6.393 0 3.197 3.197 0 116.393 0zm23.583 0a3.197 3.197 0 11-6.393 0 3.197 3.197 0 116.393 0zm23.562 0a3.197 3.197 0 11-6.393 0 3.197 3.197 0 116.393 0zm23.561 0a3.197 3.197 0 11-6.393 0 3.197 3.197 0 116.393 0zm23.583 0a3.197 3.197 0 11-6.393 0 3.197 3.197 0 116.393 0zm23.561 0a3.197 3.197 0 11-6.393 0 3.197 3.197 0 116.393 0zm23.561 0a3.197 3.197 0 01-3.196 3.199 3.197 3.197 0 01-3.196-3.199 3.197 3.197 0 013.196-3.199 3.197 3.197 0 013.196 3.199zm23.562 0a3.197 3.197 0 11-6.393 0 3.197 3.197 0 116.393 0zm23.583 0a3.197 3.197 0 11-6.393 0 3.197 3.197 0 116.393 0zm23.561 0a3.197 3.197 0 11-6.393 0 3.197 3.197 0 116.393 0zm23.561 0a3.197 3.197 0 11-6.393 0 3.197 3.197 0 116.393 0zm23.561 0a3.197 3.197 0 11-6.393 0 3.197 3.197 0 116.393 0zm23.584 0a3.196 3.196 0 11-6.39 0 3.196 3.196 0 116.39 0zM6.893 570.653a3.198 3.198 0 01-3.197 3.199A3.198 3.198 0 01.5 570.653a3.198 3.198 0 013.196-3.199 3.198 3.198 0 013.197 3.199zm23.561 0a3.198 3.198 0 01-3.197 3.199 3.198 3.198 0 01-3.196-3.199 3.198 3.198 0 013.197-3.199 3.198 3.198 0 013.196 3.199zm23.583 0a3.198 3.198 0 01-3.196 3.199 3.198 3.198 0 01-3.196-3.199 3.198 3.198 0 013.196-3.199 3.198 3.198 0 013.196 3.199zm23.562 0a3.198 3.198 0 01-3.197 3.199 3.198 3.198 0 01-3.196-3.199 3.198 3.198 0 013.196-3.199 3.198 3.198 0 013.197 3.199zm23.561 0a3.198 3.198 0 01-3.197 3.199 3.198 3.198 0 01-3.196-3.199 3.198 3.198 0 013.196-3.199 3.198 3.198 0 013.197 3.199zm23.583 0a3.197 3.197 0 11-6.393 0 3.197 3.197 0 116.393 0zm23.561 0a3.197 3.197 0 11-6.393 0 3.197 3.197 0 116.393 0zm23.562 0a3.197 3.197 0 11-6.393 0 3.197 3.197 0 116.393 0zm23.561 0a3.197 3.197 0 11-6.393 0 3.197 3.197 0 116.393 0zm23.583 0a3.197 3.197 0 11-6.393 0 3.197 3.197 0 116.393 0zm23.561 0a3.197 3.197 0 11-6.393 0 3.197 3.197 0 116.393 0zm23.561 0a3.197 3.197 0 01-3.196 3.199 3.197 3.197 0 01-3.196-3.199 3.197 3.197 0 013.196-3.199 3.197 3.197 0 013.196 3.199zm23.562 0a3.197 3.197 0 11-6.393 0 3.197 3.197 0 116.393 0zm23.583 0a3.197 3.197 0 11-6.393 0 3.197 3.197 0 116.393 0zm23.561 0a3.197 3.197 0 11-6.393 0 3.197 3.197 0 116.393 0zm23.561 0a3.197 3.197 0 11-6.393 0 3.197 3.197 0 116.393 0zm23.561 0a3.197 3.197 0 01-3.196 3.199 3.197 3.197 0 01-3.196-3.199 3.197 3.197 0 013.196-3.199 3.197 3.197 0 013.196 3.199zm23.584 0a3.197 3.197 0 11-6.393 0 3.197 3.197 0 116.393 0zm23.561 0a3.197 3.197 0 11-6.393 0 3.197 3.197 0 116.393 0zm23.561 0a3.197 3.197 0 11-6.393 0 3.197 3.197 0 116.393 0zm23.584 0a3.197 3.197 0 11-6.393 0 3.197 3.197 0 116.393 0zm23.561 0a3.197 3.197 0 11-6.393 0 3.197 3.197 0 116.393 0zm23.561 0a3.197 3.197 0 11-6.393 0 3.198 3.198 0 013.197-3.199 3.198 3.198 0 013.196 3.199zm23.561 0a3.197 3.197 0 11-6.393 0 3.197 3.197 0 116.393 0zm23.583 0a3.197 3.197 0 01-3.196 3.199 3.197 3.197 0 01-3.196-3.199 3.197 3.197 0 013.196-3.199 3.197 3.197 0 013.196 3.199zm23.562 0a3.197 3.197 0 11-6.393 0 3.197 3.197 0 116.393 0zm23.561 0a3.197 3.197 0 11-6.393 0 3.197 3.197 0 116.393 0zm23.561 0a3.197 3.197 0 11-6.393 0 3.198 3.198 0 013.196-3.199 3.198 3.198 0 013.197 3.199zm23.584 0a3.197 3.197 0 11-6.393 0 3.197 3.197 0 116.393 0zm23.561 0a3.197 3.197 0 11-6.393 0 3.197 3.197 0 116.393 0zm23.561 0a3.197 3.197 0 11-6.393 0 3.197 3.197 0 116.393 0zm23.561 0a3.197 3.197 0 11-6.393 0 3.197 3.197 0 116.393 0zm23.583 0a3.197 3.197 0 11-6.393 0 3.197 3.197 0 116.393 0zm23.562 0a3.197 3.197 0 11-6.393 0 3.197 3.197 0 116.393 0zm23.561 0a3.197 3.197 0 11-6.393 0 3.197 3.197 0 116.393 0zm23.583 0a3.197 3.197 0 11-6.393 0 3.197 3.197 0 116.393 0zm23.561 0a3.197 3.197 0 11-6.393 0 3.197 3.197 0 116.393 0zm23.561 0a3.197 3.197 0 01-3.196 3.199 3.197 3.197 0 01-3.196-3.199 3.197 3.197 0 013.196-3.199 3.197 3.197 0 013.196 3.199zm23.562 0a3.197 3.197 0 11-6.393 0 3.197 3.197 0 116.393 0zm23.583 0a3.197 3.197 0 11-6.393 0 3.197 3.197 0 116.393 0zm47.122 0a3.197 3.197 0 11-6.393 0 3.197 3.197 0 116.393 0zm23.561 0a3.197 3.197 0 11-6.393 0 3.197 3.197 0 116.393 0zm23.584 0a3.196 3.196 0 11-6.39 0 3.196 3.196 0 116.39 0zM77.599 594.269a3.198 3.198 0 01-3.197 3.199 3.198 3.198 0 01-3.196-3.199 3.197 3.197 0 116.393 0zm23.561 0a3.198 3.198 0 01-3.197 3.199 3.198 3.198 0 01-3.196-3.199 3.197 3.197 0 116.393 0zm23.583 0a3.197 3.197 0 11-3.196-3.198 3.197 3.197 0 013.196 3.198zm23.561 0a3.197 3.197 0 11-3.196-3.198 3.197 3.197 0 013.196 3.198zm23.562 0a3.197 3.197 0 11-6.393 0 3.197 3.197 0 116.393 0zm23.561 0a3.197 3.197 0 11-6.393 0 3.197 3.197 0 116.393 0zm23.583 0a3.197 3.197 0 11-3.196-3.198 3.197 3.197 0 013.196 3.198zm23.561 0a3.197 3.197 0 11-3.196-3.198 3.197 3.197 0 013.196 3.198zm23.561 0a3.197 3.197 0 01-3.196 3.199 3.197 3.197 0 01-3.196-3.199 3.197 3.197 0 116.392 0zm23.562 0a3.197 3.197 0 11-6.393 0 3.197 3.197 0 116.393 0zm23.583 0a3.197 3.197 0 11-6.393 0 3.197 3.197 0 116.393 0zm23.561 0a3.197 3.197 0 11-3.196-3.198 3.197 3.197 0 013.196 3.198zm23.561 0a3.197 3.197 0 11-3.196-3.198 3.197 3.197 0 013.196 3.198zm141.412 0a3.197 3.197 0 11-6.393 0 3.197 3.197 0 116.393 0zm23.561 0a3.198 3.198 0 01-3.196 3.199 3.198 3.198 0 010-6.397 3.197 3.197 0 013.196 3.198zm23.561 0a3.197 3.197 0 11-3.196-3.198 3.197 3.197 0 013.196 3.198zm23.583 0a3.197 3.197 0 01-3.196 3.199 3.197 3.197 0 01-3.196-3.199 3.197 3.197 0 116.392 0zm23.562 0a3.197 3.197 0 11-6.393 0 3.197 3.197 0 116.393 0zm23.561 0a3.197 3.197 0 11-6.393 0 3.197 3.197 0 116.393 0zm23.561 0a3.198 3.198 0 01-3.197 3.199 3.198 3.198 0 010-6.397 3.197 3.197 0 013.197 3.198zm23.584 0a3.197 3.197 0 11-6.393 0 3.197 3.197 0 116.393 0zm23.561 0a3.197 3.197 0 11-6.393 0 3.197 3.197 0 116.393 0zm23.561 0a3.197 3.197 0 11-6.393 0 3.197 3.197 0 116.393 0zm23.561 0a3.197 3.197 0 11-6.393 0 3.197 3.197 0 116.393 0zm23.583 0a3.197 3.197 0 11-3.196-3.198 3.197 3.197 0 013.196 3.198zm23.562 0a3.197 3.197 0 11-6.393 0 3.197 3.197 0 116.393 0zm23.561 0a3.197 3.197 0 11-6.393 0 3.197 3.197 0 116.393 0zm23.583 0a3.197 3.197 0 11-3.196-3.198 3.197 3.197 0 013.196 3.198zm23.561 0a3.197 3.197 0 11-3.196-3.198 3.197 3.197 0 013.196 3.198zm23.561 0a3.197 3.197 0 01-3.196 3.199 3.197 3.197 0 01-3.196-3.199 3.197 3.197 0 116.392 0zm23.562 0a3.197 3.197 0 11-6.393 0 3.197 3.197 0 116.393 0zm94.266 0a3.197 3.197 0 11-6.393 0 3.197 3.197 0 116.393 0zm23.584 0a3.196 3.196 0 11-6.39 0 3.195 3.195 0 116.39 0zM77.599 617.886a3.198 3.198 0 01-3.197 3.199 3.198 3.198 0 01-3.196-3.199 3.198 3.198 0 013.196-3.199 3.198 3.198 0 013.197 3.199zm23.561 0a3.198 3.198 0 01-3.197 3.199 3.198 3.198 0 01-3.196-3.199 3.198 3.198 0 013.196-3.199 3.198 3.198 0 013.197 3.199zm23.583 0a3.197 3.197 0 11-6.393 0 3.197 3.197 0 116.393 0zm23.561 0a3.197 3.197 0 11-6.393 0 3.197 3.197 0 116.393 0zm23.562 0a3.197 3.197 0 11-6.393 0 3.197 3.197 0 116.393 0zm23.561 0a3.197 3.197 0 11-6.393 0 3.197 3.197 0 116.393 0zm23.583 0a3.197 3.197 0 11-6.393 0 3.197 3.197 0 116.393 0zm23.561 0a3.197 3.197 0 11-6.393 0 3.197 3.197 0 116.393 0zm23.561 0a3.197 3.197 0 01-3.196 3.199 3.197 3.197 0 01-3.196-3.199 3.197 3.197 0 013.196-3.199 3.197 3.197 0 013.196 3.199zm23.562 0a3.197 3.197 0 11-6.393 0 3.197 3.197 0 116.393 0zm23.583 0a3.198 3.198 0 11-6.393 0 3.197 3.197 0 116.393 0zm23.561 0a3.197 3.197 0 11-6.393 0 3.197 3.197 0 116.393 0zm23.561 0a3.197 3.197 0 11-6.393 0 3.197 3.197 0 116.393 0zm164.973 0a3.197 3.197 0 11-6.393 0 3.198 3.198 0 013.197-3.199 3.198 3.198 0 013.196 3.199zm23.561 0a3.197 3.197 0 11-6.393 0 3.197 3.197 0 116.393 0zm23.583 0a3.197 3.197 0 01-3.196 3.199 3.197 3.197 0 01-3.196-3.199 3.197 3.197 0 013.196-3.199 3.197 3.197 0 013.196 3.199zm23.562 0a3.197 3.197 0 11-6.393 0 3.197 3.197 0 116.393 0zm23.561 0a3.197 3.197 0 11-6.393 0 3.197 3.197 0 116.393 0zm23.561 0a3.197 3.197 0 11-6.393 0 3.197 3.197 0 116.393 0zm23.584 0a3.197 3.197 0 11-6.393 0 3.197 3.197 0 116.393 0zm23.561 0a3.197 3.197 0 11-6.393 0 3.197 3.197 0 116.393 0zm23.561 0a3.197 3.197 0 11-6.393 0 3.197 3.197 0 116.393 0zm94.267 0a3.197 3.197 0 11-6.393 0 3.197 3.197 0 116.393 0zm23.583 0a3.197 3.197 0 11-6.393 0 3.197 3.197 0 116.393 0zm23.561 0a3.197 3.197 0 11-6.393 0 3.197 3.197 0 116.393 0zm164.973 0a3.196 3.196 0 11-6.39 0 3.196 3.196 0 116.39 0zm-895.547 23.617a3.197 3.197 0 11-6.393 0 3.197 3.197 0 116.393 0zm23.561 0a3.197 3.197 0 11-6.393 0 3.197 3.197 0 116.393 0zm23.562 0a3.197 3.197 0 11-6.393 0 3.197 3.197 0 116.393 0zm23.561 0a3.197 3.197 0 11-6.393 0 3.197 3.197 0 116.393 0zm23.583 0a3.197 3.197 0 11-6.393 0 3.197 3.197 0 116.393 0zm23.561 0a3.197 3.197 0 11-6.393 0 3.197 3.197 0 116.393 0zm47.123 0a3.197 3.197 0 11-6.393 0 3.197 3.197 0 116.393 0zm23.583 0a3.197 3.197 0 11-6.393 0 3.197 3.197 0 116.393 0zm23.561 0a3.197 3.197 0 11-6.393 0 3.197 3.197 0 116.393 0zm23.561 0a3.197 3.197 0 11-6.393 0 3.197 3.197 0 116.393 0zm-212.095 23.639a3.197 3.197 0 11-6.393 0 3.197 3.197 0 116.393 0zm23.562 0a3.197 3.197 0 11-6.393 0 3.197 3.197 0 116.393 0zm23.561 0a3.197 3.197 0 11-6.393 0 3.197 3.197 0 116.393 0zm23.583 0a3.197 3.197 0 11-6.393 0 3.197 3.197 0 116.393 0zm23.561 0a3.197 3.197 0 11-6.393 0 3.197 3.197 0 116.393 0zm-94.267 23.616a3.197 3.197 0 11-6.393 0 3.197 3.197 0 116.393 0zm23.562 0a3.197 3.197 0 11-6.393 0 3.197 3.197 0 116.393 0zm23.561 0a3.197 3.197 0 11-6.393 0 3.197 3.197 0 116.393 0zm23.583 0a3.197 3.197 0 11-6.393 0 3.197 3.197 0 116.393 0zm23.561 0a3.197 3.197 0 11-6.393 0 3.197 3.197 0 116.393 0zm23.561 0a3.197 3.197 0 01-3.196 3.199 3.197 3.197 0 01-3.196-3.199 3.197 3.197 0 013.196-3.199 3.197 3.197 0 013.196 3.199zm-117.828 23.617a3.197 3.197 0 11-6.393 0 3.197 3.197 0 116.393 0zm23.562 0a3.197 3.197 0 11-6.393 0 3.197 3.197 0 116.393 0zm23.561 0a3.197 3.197 0 11-6.393 0 3.197 3.197 0 116.393 0zm23.583 0a3.197 3.197 0 11-6.393 0 3.197 3.197 0 116.393 0zm23.561 0a3.197 3.197 0 11-6.393 0 3.197 3.197 0 116.393 0zm-23.561 23.616a3.197 3.197 0 11-6.393 0 3.197 3.197 0 116.393 0zm23.561 0a3.197 3.197 0 11-6.393 0 3.197 3.197 0 116.393 0zm23.561 0a3.197 3.197 0 01-3.196 3.199 3.197 3.197 0 01-3.196-3.199 3.197 3.197 0 013.196-3.199 3.197 3.197 0 013.196 3.199z" stroke="#AFAFAF"></path>
  </symbol>
</svg>