<svg width="224" height="286" viewBox="0 0 224 286" fill="none" xmlns="http://www.w3.org/2000/svg">
<path d="M-156.502 0V5.5534M-156.502 5.5534V11.1068M-156.502 5.5534H-162.057M-156.502 5.5534L-150.947 5.5534M-156.502 24.9903V30.5437M-156.502 30.5437V36.0971M-156.502 30.5437H-162.057M-156.502 30.5437H-150.947M-156.502 49.9806V55.534M-156.502 55.534V61.0874M-156.502 55.534H-162.057M-156.502 55.534H-150.947M-156.502 74.9709V80.5243M-156.502 80.5243V86.0777M-156.502 80.5243H-162.057M-156.502 80.5243H-150.947M-156.502 99.9612V105.515M-156.502 105.515V111.068M-156.502 105.515H-162.057M-156.502 105.515H-150.947M-156.502 124.951V130.505M-156.502 130.505V136.058M-156.502 130.505H-162.057M-156.502 130.505H-150.947M-156.502 149.942V155.495M-156.502 155.495V161.049M-156.502 155.495H-162.057M-156.502 155.495H-150.947M-156.502 174.932V180.485M-156.502 180.485V186.039M-156.502 180.485H-162.057M-156.502 180.485H-150.947M-156.502 199.922V205.476M-156.502 205.476V211.029M-156.502 205.476H-162.057M-156.502 205.476H-150.947M-156.502 224.913V230.466M-156.502 230.466V236.019M-156.502 230.466H-162.057M-156.502 230.466H-150.947M-156.502 249.903V255.456M-156.502 255.456V261.01M-156.502 255.456H-162.057M-156.502 255.456H-150.947M-156.502 274.893V280.447M-156.502 280.447V286M-156.502 280.447H-162.057M-156.502 280.447H-150.947M-131.505 0V5.5534M-131.505 5.5534V11.1068M-131.505 5.5534H-137.06M-131.505 5.5534L-125.951 5.5534M-131.505 24.9903V30.5437M-131.505 30.5437V36.0971M-131.505 30.5437H-137.06M-131.505 30.5437H-125.951M-131.505 49.9806V55.534M-131.505 55.534V61.0874M-131.505 55.534H-137.06M-131.505 55.534H-125.951M-131.505 74.9709V80.5243M-131.505 80.5243V86.0777M-131.505 80.5243H-137.06M-131.505 80.5243H-125.951M-131.505 99.9612V105.515M-131.505 105.515V111.068M-131.505 105.515H-137.06M-131.505 105.515H-125.951M-131.505 124.951V130.505M-131.505 130.505V136.058M-131.505 130.505H-137.06M-131.505 130.505H-125.951M-131.505 149.942V155.495M-131.505 155.495V161.049M-131.505 155.495H-137.06M-131.505 155.495H-125.951M-131.505 174.932V180.485M-131.505 180.485V186.039M-131.505 180.485H-137.06M-131.505 180.485H-125.951M-131.505 199.922V205.476M-131.505 205.476V211.029M-131.505 205.476H-137.06M-131.505 205.476H-125.951M-131.505 224.913V230.466M-131.505 230.466V236.019M-131.505 230.466H-137.06M-131.505 230.466H-125.951M-131.505 249.903V255.456M-131.505 255.456V261.01M-131.505 255.456H-137.06M-131.505 255.456H-125.951M-131.505 274.893V280.447M-131.505 280.447V286M-131.505 280.447H-137.06M-131.505 280.447H-125.951M-106.509 0V5.5534M-106.509 5.5534V11.1068M-106.509 5.5534H-112.064M-106.509 5.5534L-100.954 5.5534M-106.509 24.9903V30.5437M-106.509 30.5437V36.0971M-106.509 30.5437H-112.064M-106.509 30.5437H-100.954M-106.509 49.9806V55.534M-106.509 55.534V61.0874M-106.509 55.534H-112.064M-106.509 55.534H-100.954M-106.509 74.9709V80.5243M-106.509 80.5243V86.0777M-106.509 80.5243H-112.064M-106.509 80.5243H-100.954M-106.509 99.9612V105.515M-106.509 105.515V111.068M-106.509 105.515H-112.064M-106.509 105.515H-100.954M-106.509 124.951V130.505M-106.509 130.505V136.058M-106.509 130.505H-112.064M-106.509 130.505H-100.954M-106.509 149.942V155.495M-106.509 155.495V161.049M-106.509 155.495H-112.064M-106.509 155.495H-100.954M-106.509 174.932V180.485M-106.509 180.485V186.039M-106.509 180.485H-112.064M-106.509 180.485H-100.954M-106.509 199.922V205.476M-106.509 205.476V211.029M-106.509 205.476H-112.064M-106.509 205.476H-100.954M-106.509 224.913V230.466M-106.509 230.466V236.019M-106.509 230.466H-112.064M-106.509 230.466H-100.954M-106.509 249.903V255.456M-106.509 255.456V261.01M-106.509 255.456H-112.064M-106.509 255.456H-100.954M-106.509 274.893V280.447M-106.509 280.447V286M-106.509 280.447H-112.064M-106.509 280.447H-100.954M-81.5124 0V5.5534M-81.5124 5.5534V11.1068M-81.5124 5.5534H-87.0671M-81.5124 5.5534L-75.9576 5.5534M-81.5124 24.9903V30.5437M-81.5124 30.5437V36.0971M-81.5124 30.5437H-87.0671M-81.5124 30.5437H-75.9576M-81.5124 49.9806V55.534M-81.5124 55.534V61.0874M-81.5124 55.534H-87.0671M-81.5124 55.534H-75.9576M-81.5124 74.9709V80.5243M-81.5124 80.5243V86.0777M-81.5124 80.5243H-87.0671M-81.5124 80.5243H-75.9576M-81.5124 99.9612V105.515M-81.5124 105.515V111.068M-81.5124 105.515H-87.0671M-81.5124 105.515H-75.9576M-81.5124 124.951V130.505M-81.5124 130.505V136.058M-81.5124 130.505H-87.0671M-81.5124 130.505H-75.9576M-81.5124 149.942V155.495M-81.5124 155.495V161.049M-81.5124 155.495H-87.0671M-81.5124 155.495H-75.9576M-81.5124 174.932V180.485M-81.5124 180.485V186.039M-81.5124 180.485H-87.0671M-81.5124 180.485H-75.9576M-81.5124 199.922V205.476M-81.5124 205.476V211.029M-81.5124 205.476H-87.0671M-81.5124 205.476H-75.9576M-81.5124 224.913V230.466M-81.5124 230.466V236.019M-81.5124 230.466H-87.0671M-81.5124 230.466H-75.9576M-81.5124 249.903V255.456M-81.5124 255.456V261.01M-81.5124 255.456H-87.0671M-81.5124 255.456H-75.9576M-81.5124 274.893V280.447M-81.5124 280.447V286M-81.5124 280.447H-87.0671M-81.5124 280.447H-75.9576M-56.5159 0V5.5534M-56.5159 5.5534V11.1068M-56.5159 5.5534H-62.0706M-56.5159 5.5534L-50.9611 5.5534M-56.5159 24.9903V30.5437M-56.5159 30.5437V36.0971M-56.5159 30.5437H-62.0706M-56.5159 30.5437H-50.9611M-56.5159 49.9806V55.534M-56.5159 55.534V61.0874M-56.5159 55.534H-62.0706M-56.5159 55.534H-50.9611M-56.5159 74.9709V80.5243M-56.5159 80.5243V86.0777M-56.5159 80.5243H-62.0706M-56.5159 80.5243H-50.9611M-56.5159 99.9612V105.515M-56.5159 105.515V111.068M-56.5159 105.515H-62.0706M-56.5159 105.515H-50.9611M-56.5159 124.951V130.505M-56.5159 130.505V136.058M-56.5159 130.505H-62.0706M-56.5159 130.505H-50.9611M-56.5159 149.942V155.495M-56.5159 155.495V161.049M-56.5159 155.495H-62.0706M-56.5159 155.495H-50.9611M-56.5159 174.932V180.485M-56.5159 180.485V186.039M-56.5159 180.485H-62.0706M-56.5159 180.485H-50.9611M-56.5159 199.922V205.476M-56.5159 205.476V211.029M-56.5159 205.476H-62.0706M-56.5159 205.476H-50.9611M-56.5159 224.913V230.466M-56.5159 230.466V236.019M-56.5159 230.466H-62.0706M-56.5159 230.466H-50.9611M-56.5159 249.903V255.456M-56.5159 255.456V261.01M-56.5159 255.456H-62.0706M-56.5159 255.456H-50.9611M-56.5159 274.893V280.447M-56.5159 280.447V286M-56.5159 280.447H-62.0706M-56.5159 280.447H-50.9611M-31.5194 0V5.5534M-31.5194 5.5534V11.1068M-31.5194 5.5534H-37.0742M-31.5194 5.5534L-25.9647 5.5534M-31.5194 24.9903V30.5437M-31.5194 30.5437V36.0971M-31.5194 30.5437H-37.0742M-31.5194 30.5437H-25.9647M-31.5194 49.9806V55.534M-31.5194 55.534V61.0874M-31.5194 55.534H-37.0742M-31.5194 55.534H-25.9647M-31.5194 74.9709V80.5243M-31.5194 80.5243V86.0777M-31.5194 80.5243H-37.0742M-31.5194 80.5243H-25.9647M-31.5194 99.9612V105.515M-31.5194 105.515V111.068M-31.5194 105.515H-37.0742M-31.5194 105.515H-25.9647M-31.5194 124.951V130.505M-31.5194 130.505V136.058M-31.5194 130.505H-37.0742M-31.5194 130.505H-25.9647M-31.5194 149.942V155.495M-31.5194 155.495V161.049M-31.5194 155.495H-37.0742M-31.5194 155.495H-25.9647M-31.5194 174.932V180.485M-31.5194 180.485V186.039M-31.5194 180.485H-37.0742M-31.5194 180.485H-25.9647M-31.5194 199.922V205.476M-31.5194 205.476V211.029M-31.5194 205.476H-37.0742M-31.5194 205.476H-25.9647M-31.5194 224.913V230.466M-31.5194 230.466V236.019M-31.5194 230.466H-37.0742M-31.5194 230.466H-25.9647M-31.5194 249.903V255.456M-31.5194 255.456V261.01M-31.5194 255.456H-37.0742M-31.5194 255.456H-25.9647M-31.5194 274.893V280.447M-31.5194 280.447V286M-31.5194 280.447H-37.0742M-31.5194 280.447H-25.9647M-6.52295 0V5.5534M-6.52295 5.5534V11.1068M-6.52295 5.5534H-12.0777M-6.52295 5.5534L-0.968201 5.5534M-6.52295 24.9903V30.5437M-6.52295 30.5437V36.0971M-6.52295 30.5437H-12.0777M-6.52295 30.5437H-0.968201M-6.52295 49.9806V55.534M-6.52295 55.534V61.0874M-6.52295 55.534H-12.0777M-6.52295 55.534H-0.968201M-6.52295 74.9709V80.5243M-6.52295 80.5243V86.0777M-6.52295 80.5243H-12.0777M-6.52295 80.5243H-0.968201M-6.52295 99.9612V105.515M-6.52295 105.515V111.068M-6.52295 105.515H-12.0777M-6.52295 105.515H-0.968201M-6.52295 124.951V130.505M-6.52295 130.505V136.058M-6.52295 130.505H-12.0777M-6.52295 130.505H-0.968201M-6.52295 149.942V155.495M-6.52295 155.495V161.049M-6.52295 155.495H-12.0777M-6.52295 155.495H-0.968201M-6.52295 174.932V180.485M-6.52295 180.485V186.039M-6.52295 180.485H-12.0777M-6.52295 180.485H-0.968201M-6.52295 199.922V205.476M-6.52295 205.476V211.029M-6.52295 205.476H-12.0777M-6.52295 205.476H-0.968201M-6.52295 224.913V230.466M-6.52295 230.466V236.019M-6.52295 230.466H-12.0777M-6.52295 230.466H-0.968201M-6.52295 249.903V255.456M-6.52295 255.456V261.01M-6.52295 255.456H-12.0777M-6.52295 255.456H-0.968201M-6.52295 274.893V280.447M-6.52295 280.447V286M-6.52295 280.447H-12.0777M-6.52295 280.447H-0.968201M18.4735 0V5.5534M18.4735 5.5534V11.1068M18.4735 5.5534H12.9188M18.4735 5.5534L24.0283 5.5534M18.4735 24.9903V30.5437M18.4735 30.5437V36.0971M18.4735 30.5437H12.9188M18.4735 30.5437H24.0283M18.4735 49.9806V55.534M18.4735 55.534V61.0874M18.4735 55.534H12.9188M18.4735 55.534H24.0283M18.4735 74.9709V80.5243M18.4735 80.5243V86.0777M18.4735 80.5243H12.9188M18.4735 80.5243H24.0283M18.4735 99.9612V105.515M18.4735 105.515V111.068M18.4735 105.515H12.9188M18.4735 105.515H24.0283M18.4735 124.951V130.505M18.4735 130.505V136.058M18.4735 130.505H12.9188M18.4735 130.505H24.0283M18.4735 149.942V155.495M18.4735 155.495V161.049M18.4735 155.495H12.9188M18.4735 155.495H24.0283M18.4735 174.932V180.485M18.4735 180.485V186.039M18.4735 180.485H12.9188M18.4735 180.485H24.0283M18.4735 199.922V205.476M18.4735 205.476V211.029M18.4735 205.476H12.9188M18.4735 205.476H24.0283M18.4735 224.913V230.466M18.4735 230.466V236.019M18.4735 230.466H12.9188M18.4735 230.466H24.0283M18.4735 249.903V255.456M18.4735 255.456V261.01M18.4735 255.456H12.9188M18.4735 255.456H24.0283M18.4735 274.893V280.447M18.4735 280.447V286M18.4735 280.447H12.9188M18.4735 280.447H24.0283M43.47 0V5.5534M43.47 5.5534V11.1068M43.47 5.5534H37.9152M43.47 5.5534L49.0248 5.5534M43.47 24.9903V30.5437M43.47 30.5437V36.0971M43.47 30.5437H37.9152M43.47 30.5437H49.0248M43.47 49.9806V55.534M43.47 55.534V61.0874M43.47 55.534H37.9152M43.47 55.534H49.0248M43.47 74.9709V80.5243M43.47 80.5243V86.0777M43.47 80.5243H37.9152M43.47 80.5243H49.0248M43.47 99.9612V105.515M43.47 105.515V111.068M43.47 105.515H37.9152M43.47 105.515H49.0248M43.47 124.951V130.505M43.47 130.505V136.058M43.47 130.505H37.9152M43.47 130.505H49.0248M43.47 149.942V155.495M43.47 155.495V161.049M43.47 155.495H37.9152M43.47 155.495H49.0248M43.47 174.932V180.485M43.47 180.485V186.039M43.47 180.485H37.9152M43.47 180.485H49.0248M43.47 199.922V205.476M43.47 205.476V211.029M43.47 205.476H37.9152M43.47 205.476H49.0248M43.47 224.913V230.466M43.47 230.466V236.019M43.47 230.466H37.9152M43.47 230.466H49.0248M43.47 249.903V255.456M43.47 255.456V261.01M43.47 255.456H37.9152M43.47 255.456H49.0248M43.47 274.893V280.447M43.47 280.447V286M43.47 280.447H37.9152M43.47 280.447H49.0248M68.4664 0V5.5534M68.4664 5.5534V11.1068M68.4664 5.5534H62.9117M68.4664 5.5534L74.0212 5.5534M68.4664 24.9903V30.5437M68.4664 30.5437V36.0971M68.4664 30.5437H62.9117M68.4664 30.5437H74.0212M68.4664 49.9806V55.534M68.4664 55.534V61.0874M68.4664 55.534H62.9117M68.4664 55.534H74.0212M68.4664 74.9709V80.5243M68.4664 80.5243V86.0777M68.4664 80.5243H62.9117M68.4664 80.5243H74.0212M68.4664 99.9612V105.515M68.4664 105.515V111.068M68.4664 105.515H62.9117M68.4664 105.515H74.0212M68.4664 124.951V130.505M68.4664 130.505V136.058M68.4664 130.505H62.9117M68.4664 130.505H74.0212M68.4664 149.942V155.495M68.4664 155.495V161.049M68.4664 155.495H62.9117M68.4664 155.495H74.0212M68.4664 174.932V180.485M68.4664 180.485V186.039M68.4664 180.485H62.9117M68.4664 180.485H74.0212M68.4664 199.922V205.476M68.4664 205.476V211.029M68.4664 205.476H62.9117M68.4664 205.476H74.0212M68.4664 224.913V230.466M68.4664 230.466V236.019M68.4664 230.466H62.9117M68.4664 230.466H74.0212M68.4664 249.903V255.456M68.4664 255.456V261.01M68.4664 255.456H62.9117M68.4664 255.456H74.0212M68.4664 274.893V280.447M68.4664 280.447V286M68.4664 280.447H62.9117M68.4664 280.447H74.0212M93.4629 0V5.5534M93.4629 5.5534V11.1068M93.4629 5.5534H87.9081M93.4629 5.5534L99.0177 5.5534M93.4629 24.9903V30.5437M93.4629 30.5437V36.0971M93.4629 30.5437H87.9081M93.4629 30.5437H99.0177M93.4629 49.9806V55.534M93.4629 55.534V61.0874M93.4629 55.534H87.9081M93.4629 55.534H99.0177M93.4629 74.9709V80.5243M93.4629 80.5243V86.0777M93.4629 80.5243H87.9081M93.4629 80.5243H99.0177M93.4629 99.9612V105.515M93.4629 105.515V111.068M93.4629 105.515H87.9081M93.4629 105.515H99.0177M93.4629 124.951V130.505M93.4629 130.505V136.058M93.4629 130.505H87.9081M93.4629 130.505H99.0177M93.4629 149.942V155.495M93.4629 155.495V161.049M93.4629 155.495H87.9081M93.4629 155.495H99.0177M93.4629 174.932V180.485M93.4629 180.485V186.039M93.4629 180.485H87.9081M93.4629 180.485H99.0177M93.4629 199.922V205.476M93.4629 205.476V211.029M93.4629 205.476H87.9081M93.4629 205.476H99.0177M93.4629 224.913V230.466M93.4629 230.466V236.019M93.4629 230.466H87.9081M93.4629 230.466H99.0177M93.4629 249.903V255.456M93.4629 255.456V261.01M93.4629 255.456H87.9081M93.4629 255.456H99.0177M93.4629 274.893V280.447M93.4629 280.447V286M93.4629 280.447H87.9081M93.4629 280.447H99.0177M118.459 0V5.5534M118.459 5.5534V11.1068M118.459 5.5534H112.905M118.459 5.5534L124.014 5.5534M118.459 24.9903V30.5437M118.459 30.5437V36.0971M118.459 30.5437H112.905M118.459 30.5437H124.014M118.459 49.9806V55.534M118.459 55.534V61.0874M118.459 55.534H112.905M118.459 55.534H124.014M118.459 74.9709V80.5243M118.459 80.5243V86.0777M118.459 80.5243H112.905M118.459 80.5243H124.014M118.459 99.9612V105.515M118.459 105.515V111.068M118.459 105.515H112.905M118.459 105.515H124.014M118.459 124.951V130.505M118.459 130.505V136.058M118.459 130.505H112.905M118.459 130.505H124.014M118.459 149.942V155.495M118.459 155.495V161.049M118.459 155.495H112.905M118.459 155.495H124.014M118.459 174.932V180.485M118.459 180.485V186.039M118.459 180.485H112.905M118.459 180.485H124.014M118.459 199.922V205.476M118.459 205.476V211.029M118.459 205.476H112.905M118.459 205.476H124.014M118.459 224.913V230.466M118.459 230.466V236.019M118.459 230.466H112.905M118.459 230.466H124.014M118.459 249.903V255.456M118.459 255.456V261.01M118.459 255.456H112.905M118.459 255.456H124.014M118.459 274.893V280.447M118.459 280.447V286M118.459 280.447H112.905M118.459 280.447H124.014M143.456 0V5.5534M143.456 5.5534V11.1068M143.456 5.5534H137.901M143.456 5.5534L149.011 5.5534M143.456 24.9903V30.5437M143.456 30.5437V36.0971M143.456 30.5437H137.901M143.456 30.5437H149.011M143.456 49.9806V55.534M143.456 55.534V61.0874M143.456 55.534H137.901M143.456 55.534H149.011M143.456 74.9709V80.5243M143.456 80.5243V86.0777M143.456 80.5243H137.901M143.456 80.5243H149.011M143.456 99.9612V105.515M143.456 105.515V111.068M143.456 105.515H137.901M143.456 105.515H149.011M143.456 124.951V130.505M143.456 130.505V136.058M143.456 130.505H137.901M143.456 130.505H149.011M143.456 149.942V155.495M143.456 155.495V161.049M143.456 155.495H137.901M143.456 155.495H149.011M143.456 174.932V180.485M143.456 180.485V186.039M143.456 180.485H137.901M143.456 180.485H149.011M143.456 199.922V205.476M143.456 205.476V211.029M143.456 205.476H137.901M143.456 205.476H149.011M143.456 224.913V230.466M143.456 230.466V236.019M143.456 230.466H137.901M143.456 230.466H149.011M143.456 249.903V255.456M143.456 255.456V261.01M143.456 255.456H137.901M143.456 255.456H149.011M143.456 274.893V280.447M143.456 280.447V286M143.456 280.447H137.901M143.456 280.447H149.011M168.452 0V5.5534M168.452 5.5534V11.1068M168.452 5.5534H162.898M168.452 5.5534L174.007 5.5534M168.452 24.9903V30.5437M168.452 30.5437V36.0971M168.452 30.5437H162.898M168.452 30.5437H174.007M168.452 49.9806V55.534M168.452 55.534V61.0874M168.452 55.534H162.898M168.452 55.534H174.007M168.452 74.9709V80.5243M168.452 80.5243V86.0777M168.452 80.5243H162.898M168.452 80.5243H174.007M168.452 99.9612V105.515M168.452 105.515V111.068M168.452 105.515H162.898M168.452 105.515H174.007M168.452 124.951V130.505M168.452 130.505V136.058M168.452 130.505H162.898M168.452 130.505H174.007M168.452 149.942V155.495M168.452 155.495V161.049M168.452 155.495H162.898M168.452 155.495H174.007M168.452 174.932V180.485M168.452 180.485V186.039M168.452 180.485H162.898M168.452 180.485H174.007M168.452 199.922V205.476M168.452 205.476V211.029M168.452 205.476H162.898M168.452 205.476H174.007M168.452 224.913V230.466M168.452 230.466V236.019M168.452 230.466H162.898M168.452 230.466H174.007M168.452 249.903V255.456M168.452 255.456V261.01M168.452 255.456H162.898M168.452 255.456H174.007M168.452 274.893V280.447M168.452 280.447V286M168.452 280.447H162.898M168.452 280.447H174.007M193.449 0V5.5534M193.449 5.5534V11.1068M193.449 5.5534H187.894M193.449 5.5534L199.004 5.5534M193.449 24.9903V30.5437M193.449 30.5437V36.0971M193.449 30.5437H187.894M193.449 30.5437H199.004M193.449 49.9806V55.534M193.449 55.534V61.0874M193.449 55.534H187.894M193.449 55.534H199.004M193.449 74.9709V80.5243M193.449 80.5243V86.0777M193.449 80.5243H187.894M193.449 80.5243H199.004M193.449 99.9612V105.515M193.449 105.515V111.068M193.449 105.515H187.894M193.449 105.515H199.004M193.449 124.951V130.505M193.449 130.505V136.058M193.449 130.505H187.894M193.449 130.505H199.004M193.449 149.942V155.495M193.449 155.495V161.049M193.449 155.495H187.894M193.449 155.495H199.004M193.449 174.932V180.485M193.449 180.485V186.039M193.449 180.485H187.894M193.449 180.485H199.004M193.449 199.922V205.476M193.449 205.476V211.029M193.449 205.476H187.894M193.449 205.476H199.004M193.449 224.913V230.466M193.449 230.466V236.019M193.449 230.466H187.894M193.449 230.466H199.004M193.449 249.903V255.456M193.449 255.456V261.01M193.449 255.456H187.894M193.449 255.456H199.004M193.449 274.893V280.447M193.449 280.447V286M193.449 280.447H187.894M193.449 280.447H199.004M218.445 0V5.5534M218.445 5.5534V11.1068M218.445 5.5534H212.891M218.445 5.5534L224 5.5534M218.445 24.9903V30.5437M218.445 30.5437V36.0971M218.445 30.5437H212.891M218.445 30.5437H224M218.445 49.9806V55.534M218.445 55.534V61.0874M218.445 55.534H212.891M218.445 55.534H224M218.445 74.9709V80.5243M218.445 80.5243V86.0777M218.445 80.5243H212.891M218.445 80.5243H224M218.445 99.9612V105.515M218.445 105.515V111.068M218.445 105.515H212.891M218.445 105.515H224M218.445 124.951V130.505M218.445 130.505V136.058M218.445 130.505H212.891M218.445 130.505H224M218.445 149.942V155.495M218.445 155.495V161.049M218.445 155.495H212.891M218.445 155.495H224M218.445 174.932V180.485M218.445 180.485V186.039M218.445 180.485H212.891M218.445 180.485H224M218.445 199.922V205.476M218.445 205.476V211.029M218.445 205.476H212.891M218.445 205.476H224M218.445 224.913V230.466M218.445 230.466V236.019M218.445 230.466H212.891M218.445 230.466H224M218.445 249.903V255.456M218.445 255.456V261.01M218.445 255.456H212.891M218.445 255.456H224M218.445 274.893V280.447M218.445 280.447V286M218.445 280.447H212.891M218.445 280.447H224M-556.445 0V5.5534M-556.445 5.5534V11.1068M-556.445 5.5534H-562M-556.445 5.5534L-550.89 5.5534M-556.445 24.9903V30.5437M-556.445 30.5437V36.0971M-556.445 30.5437H-562M-556.445 30.5437H-550.89M-556.445 49.9806V55.534M-556.445 55.534V61.0874M-556.445 55.534H-562M-556.445 55.534H-550.89M-556.445 74.9709V80.5243M-556.445 80.5243V86.0777M-556.445 80.5243H-562M-556.445 80.5243H-550.89M-556.445 99.9612V105.515M-556.445 105.515V111.068M-556.445 105.515H-562M-556.445 105.515H-550.89M-556.445 124.951V130.505M-556.445 130.505V136.058M-556.445 130.505H-562M-556.445 130.505H-550.89M-556.445 149.942V155.495M-556.445 155.495V161.049M-556.445 155.495H-562M-556.445 155.495H-550.89M-556.445 174.932V180.485M-556.445 180.485V186.039M-556.445 180.485H-562M-556.445 180.485H-550.89M-556.445 199.922V205.476M-556.445 205.476V211.029M-556.445 205.476H-562M-556.445 205.476H-550.89M-556.445 224.913V230.466M-556.445 230.466V236.019M-556.445 230.466H-562M-556.445 230.466H-550.89M-556.445 249.903V255.456M-556.445 255.456V261.01M-556.445 255.456H-562M-556.445 255.456H-550.89M-556.445 274.893V280.447M-556.445 280.447V286M-556.445 280.447H-562M-556.445 280.447H-550.89M-531.449 0V5.5534M-531.449 5.5534V11.1068M-531.449 5.5534H-537.004M-531.449 5.5534L-525.894 5.5534M-531.449 24.9903V30.5437M-531.449 30.5437V36.0971M-531.449 30.5437H-537.004M-531.449 30.5437H-525.894M-531.449 49.9806V55.534M-531.449 55.534V61.0874M-531.449 55.534H-537.004M-531.449 55.534H-525.894M-531.449 74.9709V80.5243M-531.449 80.5243V86.0777M-531.449 80.5243H-537.004M-531.449 80.5243H-525.894M-531.449 99.9612V105.515M-531.449 105.515V111.068M-531.449 105.515H-537.004M-531.449 105.515H-525.894M-531.449 124.951V130.505M-531.449 130.505V136.058M-531.449 130.505H-537.004M-531.449 130.505H-525.894M-531.449 149.942V155.495M-531.449 155.495V161.049M-531.449 155.495H-537.004M-531.449 155.495H-525.894M-531.449 174.932V180.485M-531.449 180.485V186.039M-531.449 180.485H-537.004M-531.449 180.485H-525.894M-531.449 199.922V205.476M-531.449 205.476V211.029M-531.449 205.476H-537.004M-531.449 205.476H-525.894M-531.449 224.913V230.466M-531.449 230.466V236.019M-531.449 230.466H-537.004M-531.449 230.466H-525.894M-531.449 249.903V255.456M-531.449 255.456V261.01M-531.449 255.456H-537.004M-531.449 255.456H-525.894M-531.449 274.893V280.447M-531.449 280.447V286M-531.449 280.447H-537.004M-531.449 280.447H-525.894M-506.452 0V5.5534M-506.452 5.5534V11.1068M-506.452 5.5534H-512.007M-506.452 5.5534L-500.898 5.5534M-506.452 24.9903V30.5437M-506.452 30.5437V36.0971M-506.452 30.5437H-512.007M-506.452 30.5437H-500.898M-506.452 49.9806V55.534M-506.452 55.534V61.0874M-506.452 55.534H-512.007M-506.452 55.534H-500.898M-506.452 74.9709V80.5243M-506.452 80.5243V86.0777M-506.452 80.5243H-512.007M-506.452 80.5243H-500.898M-506.452 99.9612V105.515M-506.452 105.515V111.068M-506.452 105.515H-512.007M-506.452 105.515H-500.898M-506.452 124.951V130.505M-506.452 130.505V136.058M-506.452 130.505H-512.007M-506.452 130.505H-500.898M-506.452 149.942V155.495M-506.452 155.495V161.049M-506.452 155.495H-512.007M-506.452 155.495H-500.898M-506.452 174.932V180.485M-506.452 180.485V186.039M-506.452 180.485H-512.007M-506.452 180.485H-500.898M-506.452 199.922V205.476M-506.452 205.476V211.029M-506.452 205.476H-512.007M-506.452 205.476H-500.898M-506.452 224.913V230.466M-506.452 230.466V236.019M-506.452 230.466H-512.007M-506.452 230.466H-500.898M-506.452 249.903V255.456M-506.452 255.456V261.01M-506.452 255.456H-512.007M-506.452 255.456H-500.898M-506.452 274.893V280.447M-506.452 280.447V286M-506.452 280.447H-512.007M-506.452 280.447H-500.898M-481.456 0V5.5534M-481.456 5.5534V11.1068M-481.456 5.5534H-487.011M-481.456 5.5534L-475.901 5.5534M-481.456 24.9903V30.5437M-481.456 30.5437V36.0971M-481.456 30.5437H-487.011M-481.456 30.5437H-475.901M-481.456 49.9806V55.534M-481.456 55.534V61.0874M-481.456 55.534H-487.011M-481.456 55.534H-475.901M-481.456 74.9709V80.5243M-481.456 80.5243V86.0777M-481.456 80.5243H-487.011M-481.456 80.5243H-475.901M-481.456 99.9612V105.515M-481.456 105.515V111.068M-481.456 105.515H-487.011M-481.456 105.515H-475.901M-481.456 124.951V130.505M-481.456 130.505V136.058M-481.456 130.505H-487.011M-481.456 130.505H-475.901M-481.456 149.942V155.495M-481.456 155.495V161.049M-481.456 155.495H-487.011M-481.456 155.495H-475.901M-481.456 174.932V180.485M-481.456 180.485V186.039M-481.456 180.485H-487.011M-481.456 180.485H-475.901M-481.456 199.922V205.476M-481.456 205.476V211.029M-481.456 205.476H-487.011M-481.456 205.476H-475.901M-481.456 224.913V230.466M-481.456 230.466V236.019M-481.456 230.466H-487.011M-481.456 230.466H-475.901M-481.456 249.903V255.456M-481.456 255.456V261.01M-481.456 255.456H-487.011M-481.456 255.456H-475.901M-481.456 274.893V280.447M-481.456 280.447V286M-481.456 280.447H-487.011M-481.456 280.447H-475.901M-456.459 0V5.5534M-456.459 5.5534V11.1068M-456.459 5.5534H-462.014M-456.459 5.5534L-450.905 5.5534M-456.459 24.9903V30.5437M-456.459 30.5437V36.0971M-456.459 30.5437H-462.014M-456.459 30.5437H-450.905M-456.459 49.9806V55.534M-456.459 55.534V61.0874M-456.459 55.534H-462.014M-456.459 55.534H-450.905M-456.459 74.9709V80.5243M-456.459 80.5243V86.0777M-456.459 80.5243H-462.014M-456.459 80.5243H-450.905M-456.459 99.9612V105.515M-456.459 105.515V111.068M-456.459 105.515H-462.014M-456.459 105.515H-450.905M-456.459 124.951V130.505M-456.459 130.505V136.058M-456.459 130.505H-462.014M-456.459 130.505H-450.905M-456.459 149.942V155.495M-456.459 155.495V161.049M-456.459 155.495H-462.014M-456.459 155.495H-450.905M-456.459 174.932V180.485M-456.459 180.485V186.039M-456.459 180.485H-462.014M-456.459 180.485H-450.905M-456.459 199.922V205.476M-456.459 205.476V211.029M-456.459 205.476H-462.014M-456.459 205.476H-450.905M-456.459 224.913V230.466M-456.459 230.466V236.019M-456.459 230.466H-462.014M-456.459 230.466H-450.905M-456.459 249.903V255.456M-456.459 255.456V261.01M-456.459 255.456H-462.014M-456.459 255.456H-450.905M-456.459 274.893V280.447M-456.459 280.447V286M-456.459 280.447H-462.014M-456.459 280.447H-450.905M-431.463 0V5.5534M-431.463 5.5534V11.1068M-431.463 5.5534H-437.018M-431.463 5.5534L-425.908 5.5534M-431.463 24.9903V30.5437M-431.463 30.5437V36.0971M-431.463 30.5437H-437.018M-431.463 30.5437H-425.908M-431.463 49.9806V55.534M-431.463 55.534V61.0874M-431.463 55.534H-437.018M-431.463 55.534H-425.908M-431.463 74.9709V80.5243M-431.463 80.5243V86.0777M-431.463 80.5243H-437.018M-431.463 80.5243H-425.908M-431.463 99.9612V105.515M-431.463 105.515V111.068M-431.463 105.515H-437.018M-431.463 105.515H-425.908M-431.463 124.951V130.505M-431.463 130.505V136.058M-431.463 130.505H-437.018M-431.463 130.505H-425.908M-431.463 149.942V155.495M-431.463 155.495V161.049M-431.463 155.495H-437.018M-431.463 155.495H-425.908M-431.463 174.932V180.485M-431.463 180.485V186.039M-431.463 180.485H-437.018M-431.463 180.485H-425.908M-431.463 199.922V205.476M-431.463 205.476V211.029M-431.463 205.476H-437.018M-431.463 205.476H-425.908M-431.463 224.913V230.466M-431.463 230.466V236.019M-431.463 230.466H-437.018M-431.463 230.466H-425.908M-431.463 249.903V255.456M-431.463 255.456V261.01M-431.463 255.456H-437.018M-431.463 255.456H-425.908M-431.463 274.893V280.447M-431.463 280.447V286M-431.463 280.447H-437.018M-431.463 280.447H-425.908M-406.466 0V5.5534M-406.466 5.5534V11.1068M-406.466 5.5534H-412.021M-406.466 5.5534L-400.912 5.5534M-406.466 24.9903V30.5437M-406.466 30.5437V36.0971M-406.466 30.5437H-412.021M-406.466 30.5437H-400.912M-406.466 49.9806V55.534M-406.466 55.534V61.0874M-406.466 55.534H-412.021M-406.466 55.534H-400.912M-406.466 74.9709V80.5243M-406.466 80.5243V86.0777M-406.466 80.5243H-412.021M-406.466 80.5243H-400.912M-406.466 99.9612V105.515M-406.466 105.515V111.068M-406.466 105.515H-412.021M-406.466 105.515H-400.912M-406.466 124.951V130.505M-406.466 130.505V136.058M-406.466 130.505H-412.021M-406.466 130.505H-400.912M-406.466 149.942V155.495M-406.466 155.495V161.049M-406.466 155.495H-412.021M-406.466 155.495H-400.912M-406.466 174.932V180.485M-406.466 180.485V186.039M-406.466 180.485H-412.021M-406.466 180.485H-400.912M-406.466 199.922V205.476M-406.466 205.476V211.029M-406.466 205.476H-412.021M-406.466 205.476H-400.912M-406.466 224.913V230.466M-406.466 230.466V236.019M-406.466 230.466H-412.021M-406.466 230.466H-400.912M-406.466 249.903V255.456M-406.466 255.456V261.01M-406.466 255.456H-412.021M-406.466 255.456H-400.912M-406.466 274.893V280.447M-406.466 280.447V286M-406.466 280.447H-412.021M-406.466 280.447H-400.912M-381.47 0V5.5534M-381.47 5.5534V11.1068M-381.47 5.5534H-387.025M-381.47 5.5534L-375.915 5.5534M-381.47 24.9903V30.5437M-381.47 30.5437V36.0971M-381.47 30.5437H-387.025M-381.47 30.5437H-375.915M-381.47 49.9806V55.534M-381.47 55.534V61.0874M-381.47 55.534H-387.025M-381.47 55.534H-375.915M-381.47 74.9709V80.5243M-381.47 80.5243V86.0777M-381.47 80.5243H-387.025M-381.47 80.5243H-375.915M-381.47 99.9612V105.515M-381.47 105.515V111.068M-381.47 105.515H-387.025M-381.47 105.515H-375.915M-381.47 124.951V130.505M-381.47 130.505V136.058M-381.47 130.505H-387.025M-381.47 130.505H-375.915M-381.47 149.942V155.495M-381.47 155.495V161.049M-381.47 155.495H-387.025M-381.47 155.495H-375.915M-381.47 174.932V180.485M-381.47 180.485V186.039M-381.47 180.485H-387.025M-381.47 180.485H-375.915M-381.47 199.922V205.476M-381.47 205.476V211.029M-381.47 205.476H-387.025M-381.47 205.476H-375.915M-381.47 224.913V230.466M-381.47 230.466V236.019M-381.47 230.466H-387.025M-381.47 230.466H-375.915M-381.47 249.903V255.456M-381.47 255.456V261.01M-381.47 255.456H-387.025M-381.47 255.456H-375.915M-381.47 274.893V280.447M-381.47 280.447V286M-381.47 280.447H-387.025M-381.47 280.447H-375.915M-356.473 0V5.5534M-356.473 5.5534V11.1068M-356.473 5.5534H-362.028M-356.473 5.5534L-350.919 5.5534M-356.473 24.9903V30.5437M-356.473 30.5437V36.0971M-356.473 30.5437H-362.028M-356.473 30.5437H-350.919M-356.473 49.9806V55.534M-356.473 55.534V61.0874M-356.473 55.534H-362.028M-356.473 55.534H-350.919M-356.473 74.9709V80.5243M-356.473 80.5243V86.0777M-356.473 80.5243H-362.028M-356.473 80.5243H-350.919M-356.473 99.9612V105.515M-356.473 105.515V111.068M-356.473 105.515H-362.028M-356.473 105.515H-350.919M-356.473 124.951V130.505M-356.473 130.505V136.058M-356.473 130.505H-362.028M-356.473 130.505H-350.919M-356.473 149.942V155.495M-356.473 155.495V161.049M-356.473 155.495H-362.028M-356.473 155.495H-350.919M-356.473 174.932V180.485M-356.473 180.485V186.039M-356.473 180.485H-362.028M-356.473 180.485H-350.919M-356.473 199.922V205.476M-356.473 205.476V211.029M-356.473 205.476H-362.028M-356.473 205.476H-350.919M-356.473 224.913V230.466M-356.473 230.466V236.019M-356.473 230.466H-362.028M-356.473 230.466H-350.919M-356.473 249.903V255.456M-356.473 255.456V261.01M-356.473 255.456H-362.028M-356.473 255.456H-350.919M-356.473 274.893V280.447M-356.473 280.447V286M-356.473 280.447H-362.028M-356.473 280.447H-350.919M-331.477 0V5.5534M-331.477 5.5534V11.1068M-331.477 5.5534H-337.032M-331.477 5.5534L-325.922 5.5534M-331.477 24.9903V30.5437M-331.477 30.5437V36.0971M-331.477 30.5437H-337.032M-331.477 30.5437H-325.922M-331.477 49.9806V55.534M-331.477 55.534V61.0874M-331.477 55.534H-337.032M-331.477 55.534H-325.922M-331.477 74.9709V80.5243M-331.477 80.5243V86.0777M-331.477 80.5243H-337.032M-331.477 80.5243H-325.922M-331.477 99.9612V105.515M-331.477 105.515V111.068M-331.477 105.515H-337.032M-331.477 105.515H-325.922M-331.477 124.951V130.505M-331.477 130.505V136.058M-331.477 130.505H-337.032M-331.477 130.505H-325.922M-331.477 149.942V155.495M-331.477 155.495V161.049M-331.477 155.495H-337.032M-331.477 155.495H-325.922M-331.477 174.932V180.485M-331.477 180.485V186.039M-331.477 180.485H-337.032M-331.477 180.485H-325.922M-331.477 199.922V205.476M-331.477 205.476V211.029M-331.477 205.476H-337.032M-331.477 205.476H-325.922M-331.477 224.913V230.466M-331.477 230.466V236.019M-331.477 230.466H-337.032M-331.477 230.466H-325.922M-331.477 249.903V255.456M-331.477 255.456V261.01M-331.477 255.456H-337.032M-331.477 255.456H-325.922M-331.477 274.893V280.447M-331.477 280.447V286M-331.477 280.447H-337.032M-331.477 280.447H-325.922M-306.481 0V5.5534M-306.481 5.5534V11.1068M-306.481 5.5534H-312.035M-306.481 5.5534L-300.926 5.5534M-306.481 24.9903V30.5437M-306.481 30.5437V36.0971M-306.481 30.5437H-312.035M-306.481 30.5437H-300.926M-306.481 49.9806V55.534M-306.481 55.534V61.0874M-306.481 55.534H-312.035M-306.481 55.534H-300.926M-306.481 74.9709V80.5243M-306.481 80.5243V86.0777M-306.481 80.5243H-312.035M-306.481 80.5243H-300.926M-306.481 99.9612V105.515M-306.481 105.515V111.068M-306.481 105.515H-312.035M-306.481 105.515H-300.926M-306.481 124.951V130.505M-306.481 130.505V136.058M-306.481 130.505H-312.035M-306.481 130.505H-300.926M-306.481 149.942V155.495M-306.481 155.495V161.049M-306.481 155.495H-312.035M-306.481 155.495H-300.926M-306.481 174.932V180.485M-306.481 180.485V186.039M-306.481 180.485H-312.035M-306.481 180.485H-300.926M-306.481 199.922V205.476M-306.481 205.476V211.029M-306.481 205.476H-312.035M-306.481 205.476H-300.926M-306.481 224.913V230.466M-306.481 230.466V236.019M-306.481 230.466H-312.035M-306.481 230.466H-300.926M-306.481 249.903V255.456M-306.481 255.456V261.01M-306.481 255.456H-312.035M-306.481 255.456H-300.926M-306.481 274.893V280.447M-306.481 280.447V286M-306.481 280.447H-312.035M-306.481 280.447H-300.926M-281.484 0V5.5534M-281.484 5.5534V11.1068M-281.484 5.5534H-287.039M-281.484 5.5534L-275.929 5.5534M-281.484 24.9903V30.5437M-281.484 30.5437V36.0971M-281.484 30.5437H-287.039M-281.484 30.5437H-275.929M-281.484 49.9806V55.534M-281.484 55.534V61.0874M-281.484 55.534H-287.039M-281.484 55.534H-275.929M-281.484 74.9709V80.5243M-281.484 80.5243V86.0777M-281.484 80.5243H-287.039M-281.484 80.5243H-275.929M-281.484 99.9612V105.515M-281.484 105.515V111.068M-281.484 105.515H-287.039M-281.484 105.515H-275.929M-281.484 124.951V130.505M-281.484 130.505V136.058M-281.484 130.505H-287.039M-281.484 130.505H-275.929M-281.484 149.942V155.495M-281.484 155.495V161.049M-281.484 155.495H-287.039M-281.484 155.495H-275.929M-281.484 174.932V180.485M-281.484 180.485V186.039M-281.484 180.485H-287.039M-281.484 180.485H-275.929M-281.484 199.922V205.476M-281.484 205.476V211.029M-281.484 205.476H-287.039M-281.484 205.476H-275.929M-281.484 224.913V230.466M-281.484 230.466V236.019M-281.484 230.466H-287.039M-281.484 230.466H-275.929M-281.484 249.903V255.456M-281.484 255.456V261.01M-281.484 255.456H-287.039M-281.484 255.456H-275.929M-281.484 274.893V280.447M-281.484 280.447V286M-281.484 280.447H-287.039M-281.484 280.447H-275.929M-256.488 0V5.5534M-256.488 5.5534V11.1068M-256.488 5.5534H-262.042M-256.488 5.5534L-250.933 5.5534M-256.488 24.9903V30.5437M-256.488 30.5437V36.0971M-256.488 30.5437H-262.042M-256.488 30.5437H-250.933M-256.488 49.9806V55.534M-256.488 55.534V61.0874M-256.488 55.534H-262.042M-256.488 55.534H-250.933M-256.488 74.9709V80.5243M-256.488 80.5243V86.0777M-256.488 80.5243H-262.042M-256.488 80.5243H-250.933M-256.488 99.9612V105.515M-256.488 105.515V111.068M-256.488 105.515H-262.042M-256.488 105.515H-250.933M-256.488 124.951V130.505M-256.488 130.505V136.058M-256.488 130.505H-262.042M-256.488 130.505H-250.933M-256.488 149.942V155.495M-256.488 155.495V161.049M-256.488 155.495H-262.042M-256.488 155.495H-250.933M-256.488 174.932V180.485M-256.488 180.485V186.039M-256.488 180.485H-262.042M-256.488 180.485H-250.933M-256.488 199.922V205.476M-256.488 205.476V211.029M-256.488 205.476H-262.042M-256.488 205.476H-250.933M-256.488 224.913V230.466M-256.488 230.466V236.019M-256.488 230.466H-262.042M-256.488 230.466H-250.933M-256.488 249.903V255.456M-256.488 255.456V261.01M-256.488 255.456H-262.042M-256.488 255.456H-250.933M-256.488 274.893V280.447M-256.488 280.447V286M-256.488 280.447H-262.042M-256.488 280.447H-250.933M-231.491 0V5.5534M-231.491 5.5534V11.1068M-231.491 5.5534H-237.046M-231.491 5.5534L-225.936 5.5534M-231.491 24.9903V30.5437M-231.491 30.5437V36.0971M-231.491 30.5437H-237.046M-231.491 30.5437H-225.936M-231.491 49.9806V55.534M-231.491 55.534V61.0874M-231.491 55.534H-237.046M-231.491 55.534H-225.936M-231.491 74.9709V80.5243M-231.491 80.5243V86.0777M-231.491 80.5243H-237.046M-231.491 80.5243H-225.936M-231.491 99.9612V105.515M-231.491 105.515V111.068M-231.491 105.515H-237.046M-231.491 105.515H-225.936M-231.491 124.951V130.505M-231.491 130.505V136.058M-231.491 130.505H-237.046M-231.491 130.505H-225.936M-231.491 149.942V155.495M-231.491 155.495V161.049M-231.491 155.495H-237.046M-231.491 155.495H-225.936M-231.491 174.932V180.485M-231.491 180.485V186.039M-231.491 180.485H-237.046M-231.491 180.485H-225.936M-231.491 199.922V205.476M-231.491 205.476V211.029M-231.491 205.476H-237.046M-231.491 205.476H-225.936M-231.491 224.913V230.466M-231.491 230.466V236.019M-231.491 230.466H-237.046M-231.491 230.466H-225.936M-231.491 249.903V255.456M-231.491 255.456V261.01M-231.491 255.456H-237.046M-231.491 255.456H-225.936M-231.491 274.893V280.447M-231.491 280.447V286M-231.491 280.447H-237.046M-231.491 280.447H-225.936M-206.495 0V5.5534M-206.495 5.5534V11.1068M-206.495 5.5534H-212.049M-206.495 5.5534L-200.94 5.5534M-206.495 24.9903V30.5437M-206.495 30.5437V36.0971M-206.495 30.5437H-212.049M-206.495 30.5437H-200.94M-206.495 49.9806V55.534M-206.495 55.534V61.0874M-206.495 55.534H-212.049M-206.495 55.534H-200.94M-206.495 74.9709V80.5243M-206.495 80.5243V86.0777M-206.495 80.5243H-212.049M-206.495 80.5243H-200.94M-206.495 99.9612V105.515M-206.495 105.515V111.068M-206.495 105.515H-212.049M-206.495 105.515H-200.94M-206.495 124.951V130.505M-206.495 130.505V136.058M-206.495 130.505H-212.049M-206.495 130.505H-200.94M-206.495 149.942V155.495M-206.495 155.495V161.049M-206.495 155.495H-212.049M-206.495 155.495H-200.94M-206.495 174.932V180.485M-206.495 180.485V186.039M-206.495 180.485H-212.049M-206.495 180.485H-200.94M-206.495 199.922V205.476M-206.495 205.476V211.029M-206.495 205.476H-212.049M-206.495 205.476H-200.94M-206.495 224.913V230.466M-206.495 230.466V236.019M-206.495 230.466H-212.049M-206.495 230.466H-200.94M-206.495 249.903V255.456M-206.495 255.456V261.01M-206.495 255.456H-212.049M-206.495 255.456H-200.94M-206.495 274.893V280.447M-206.495 280.447V286M-206.495 280.447H-212.049M-206.495 280.447H-200.94M-181.498 0V5.5534M-181.498 5.5534V11.1068M-181.498 5.5534H-187.053M-181.498 5.5534L-175.943 5.5534M-181.498 24.9903V30.5437M-181.498 30.5437V36.0971M-181.498 30.5437H-187.053M-181.498 30.5437H-175.943M-181.498 49.9806V55.534M-181.498 55.534V61.0874M-181.498 55.534H-187.053M-181.498 55.534H-175.943M-181.498 74.9709V80.5243M-181.498 80.5243V86.0777M-181.498 80.5243H-187.053M-181.498 80.5243H-175.943M-181.498 99.9612V105.515M-181.498 105.515V111.068M-181.498 105.515H-187.053M-181.498 105.515H-175.943M-181.498 124.951V130.505M-181.498 130.505V136.058M-181.498 130.505H-187.053M-181.498 130.505H-175.943M-181.498 149.942V155.495M-181.498 155.495V161.049M-181.498 155.495H-187.053M-181.498 155.495H-175.943M-181.498 174.932V180.485M-181.498 180.485V186.039M-181.498 180.485H-187.053M-181.498 180.485H-175.943M-181.498 199.922V205.476M-181.498 205.476V211.029M-181.498 205.476H-187.053M-181.498 205.476H-175.943M-181.498 224.913V230.466M-181.498 230.466V236.019M-181.498 230.466H-187.053M-181.498 230.466H-175.943M-181.498 249.903V255.456M-181.498 255.456V261.01M-181.498 255.456H-187.053M-181.498 255.456H-175.943M-181.498 274.893V280.447M-181.498 280.447V286M-181.498 280.447H-187.053M-181.498 280.447H-175.943" stroke="black" stroke-opacity="0.05" stroke-width="2"/>
</svg>
