<svg width="207" height="800" viewBox="0 0 207 800" fill="none" xmlns="http://www.w3.org/2000/svg">
<path d="M0.999993 1.00441L45.8897 1.00441L45.8897 105.911C45.8897 112.968 47.5956 118.338 51.319 121.927C55.0349 125.509 60.5727 127.135 67.8286 127.135L205.047 127.135L205.047 171.876L61.8699 171.876C46.1439 171.876 27.8668 169.446 15.9625 159.313C4.1201 149.233 0.999998 132.151 0.999998 117.045L0.999993 1.00441Z" stroke="white" stroke-opacity="0.05" stroke-width="2"/>
<path d="M205.067 476.431L160.013 476.431L160.013 324.676C160.013 321.406 159.76 317.612 158.81 314.032C157.861 310.454 156.195 307.016 153.315 304.552L153.304 304.544L153.294 304.535C148.444 300.61 142.24 298.612 135.933 298.934L125.656 298.934L124.656 298.934L124.656 299.934L124.656 420.954L124.656 420.965L124.656 420.976C124.878 431.411 123.503 441.821 120.575 451.869C118.283 459.683 114.194 466.899 108.611 472.98C103.371 478.41 96.7961 482.481 89.4916 484.814C81.429 487.324 72.9952 488.544 64.524 488.425L64.4925 488.425L64.461 488.426C47.4264 489.263 30.7478 483.551 18.0703 472.549C4.30834 459.453 1.02273 439.122 1.02273 421.116L1.02272 297.406L1.02272 297.394L1.02244 297.382C0.858993 290.464 1.6537 283.555 3.38564 276.84L3.38745 276.833L3.38915 276.826C4.65158 271.621 7.36242 266.844 11.2335 263.011C15.0677 259.578 19.8095 257.226 24.9412 256.218L24.9415 256.218C31.2116 254.984 37.6023 254.413 44.0006 254.515L44.0086 254.516L44.0166 254.516L136.571 254.516L136.577 254.515C145.648 254.456 154.675 255.73 163.349 258.293C171.545 260.755 179.033 265.022 185.224 270.755C191.685 276.971 196.587 284.528 199.56 292.847C203.145 302.938 204.859 313.559 204.625 324.223L204.625 324.236L204.625 324.248L205.067 476.431ZM86.5045 299.934L86.5045 298.934L85.5045 298.934L52.9268 298.934C50.5575 298.934 48.7852 299.453 47.674 300.823C46.6095 302.137 46.3579 304.001 46.3579 306.119L46.3579 420.694C45.7804 427.18 47.7022 433.64 51.748 438.835L51.8065 438.91L51.8781 438.972C53.9008 440.744 56.2649 442.109 58.8333 442.991C61.3841 443.867 64.0873 444.249 66.7893 444.116C69.4254 444.266 72.0662 443.895 74.5503 443.024C77.0519 442.147 79.3425 440.782 81.2788 439.012L81.2936 438.998L81.3078 438.984C83.6582 436.655 84.9372 433.239 85.6417 429.816C86.3461 426.394 86.5026 422.831 86.5045 420.04C86.5046 420.022 86.5045 420.004 86.5045 419.986L86.5045 299.934Z" stroke="white" stroke-opacity="0.05" stroke-width="2"/>
<path d="M81.2711 609.506L81.2716 608.505L80.2711 608.505L69.7722 608.505C63.464 608.178 57.2575 610.177 52.4097 614.107L52.4094 614.108C49.4008 616.549 47.7306 620 46.8084 623.591C45.8863 627.181 45.691 630.99 45.691 634.247L45.691 786.433L1.02406 786.433L1.02405 634.086L1.02405 634.075L1.0238 634.064C0.782901 623.382 2.49718 612.744 6.08816 602.637C9.11321 594.364 14.0525 586.863 20.5333 580.706C26.7249 574.971 34.2146 570.703 42.4122 568.24C51.0852 565.677 60.112 564.404 69.1825 564.464L69.1891 564.464L161.91 564.464L161.918 564.464L161.926 564.464C168.325 564.361 174.716 564.932 180.986 566.166L180.986 566.166C186.119 567.172 190.861 569.524 194.694 572.96C198.495 576.712 201.184 581.375 202.485 586.463L202.486 586.465C204.218 593.181 205.013 600.089 204.849 607.007L204.849 607.019L204.849 607.031L204.849 730.741L204.849 730.754C205.071 748.905 201.564 769.183 187.804 782.064C175.126 793.068 158.446 798.781 141.41 797.944L141.379 797.943L141.348 797.943C132.877 798.061 124.443 796.841 116.38 794.332C109.07 791.984 102.495 787.895 97.2611 782.445C91.6765 776.366 87.5874 769.149 85.2965 761.335C82.3746 751.304 80.9995 740.911 81.2153 730.493L81.2155 730.483L81.2155 730.473L81.2711 609.506ZM120.423 608.505L119.423 608.505L119.423 609.505L119.423 729.827C119.423 732.55 119.591 736.135 120.306 739.597C121.017 743.034 122.294 746.491 124.615 748.82L124.631 748.837L124.648 748.852C126.598 750.637 128.908 752.011 131.431 752.888C133.936 753.759 136.598 754.123 139.253 753.957C141.959 754.082 144.664 753.691 147.215 752.806C149.783 751.914 152.145 750.538 154.163 748.757L154.233 748.695L154.29 748.621C158.336 743.427 160.258 736.967 159.681 730.481L159.681 615.691C159.681 613.541 159.414 611.676 158.339 610.369C157.22 609.009 155.45 608.505 153.112 608.505L120.423 608.505Z" stroke="white" stroke-opacity="0.05" stroke-width="2"/>
</svg>
